<svg xmlns="http://www.w3.org/2000/svg" viewBox="-214.71215351812376 -139.87206823027722 780.2132196162041 507.5266524520259" width="780.2132196162041" height="507.5266524520259"><path d="M -164.71215351812376 87.03624733475479 C -94.30703624733485 2.2174840085287713, -17.313432835821004 -38.25159914712157, -10.490405117270896 -46.31130063965884 C 52.62260127931761 -39.87206823027722, 22.654584221748323 -52.196162046908356, 64.9466950959487 -45.874200426439344 C 87.6226012793176 -89.87206823027722, 140.03198294243063 -46.14072494669513, 143.71002132196153 -48.69936034115142 C 178.94456289978658 -63.19829424307042, 170.79957356076747 -54.78678038379533, 196.8869936034114 -43.9339019189766 C 193.9765458422174 -38.19829424307039, 217.62260127931754 -59.87206823027721, 222.62260127931754 -39.87206823027722 L 227.62260127931754 -19.872068230277222 L 254.06183368869912 10.980810234541565 L 283.1769722814497 85.33049040511727 L 285.97014925373105 205.73560767590615 L 197.6226012793176 95.12793176972278 L 177.6226012793176 110.12793176972278 L 157.6226012793176 115.12793176972278 L 132.6226012793176 115.12793176972278 L 89.594882729211 146.0660980810234 L 87.38805970149245 234.2643923240938 L -138.3901918976546 178.44349680170578 Z" fill="#cc1a1a" stroke="#2c3e50" stroke-width="2.5" stroke-linecap="round" stroke-linejoin="round"/><path d="M 159.50959488272906 -48.40085287846483 C 160.86353944562887 -54.87206823027719, 180.86353944562887 -64.8720682302772, 205.86353944562887 -69.8720682302772 C 230.86353944562887 -74.8720682302772, 255.86353944562887 -74.8720682302772, 280.8635394456289 -69.8720682302772 C 305.86353944562893 -64.8720682302772, 325.86353944562893 -54.87206823027719, 340.86353944562893 -39.87206823027719 C 355.86353944562893 -24.872068230277193, 365.86353944562893 -4.872068230277193, 370.86353944562893 20.127931769722807 L 370.86353944562893 45.12793176972281 L 365.86353944562893 70.1279317697228 L 371.2153518123665 110.59701492537312 L 340.86353944562893 105.1279317697228 L 320.86353944562893 115.1279317697228 L 295.8635394456289 120.1279317697228 L 270.8635394456289 120.1279317697228 L 245.86353944562887 115.1279317697228 L 225.86353944562887 105.1279317697228 L 205.86353944562887 90.1279317697228 L 190.86353944562887 70.1279317697228 L 175.86353944562887 45.12793176972281 L 165.86353944562887 20.127931769722807 L 160.86353944562887 -4.872068230277193 L 150.86353944562887 -19.872068230277193 Z" fill="#4ECDC4" stroke="#2c3e50" stroke-width="2.5" stroke-linecap="round" stroke-linejoin="round"/><path d="M 480.8848614072494 39.74413646055436 L 482.47334754797424 44.27505330490402 L 487.4733475479741 71.8336886993603 C 486.50319829424245 94.27505330490399, 515.5010660980804 116.71641791044775, 510.5010660980807 141.71641791044775 C 505.50106609808086 166.71641791044775, 495.50106609808097 186.71641791044775, 480.50106609808097 201.71641791044775 C 465.50106609808097 216.71641791044775, 445.50106609808097 226.71641791044775, 420.50106609808097 226.71641791044775 L 395.50106609808097 224.71641791044775 L 370.50106609808097 216.71641791044775 L 350.50106609808097 201.71641791044775 L 335.50106609808097 181.71641791044775 L 325.50106609808097 156.71641791044775 L 320.50106609808097 131.71641791044775 L 320.50106609808097 106.71641791044775 L 316.11940298507454 76.48187633262259 L 320.1492537313432 44.42430703624734 L 329.1791044776119 6.279317697228123 L 347.47334754797436 -32.2771855010661 L 370.76759061833684 -36.13006396588489 L 406.002132196162 -37.835820895522374 L 435.2665245202558 -21.74840085287849 L 448.4434968017057 -4.072494669509609 L 463.32622601279314 25.426439232409393 L 475.8848614072494 33.60341151385927 Z" fill="#96CEB4" stroke="#2c3e50" stroke-width="2.5" stroke-linecap="round" stroke-linejoin="round"/><path d="M 87.01677409950194 124.36119355847248 L 79.5155434442398 134.49577402105405 L 73.37778099531569 167.77289647831338 C 67.83652275796089 174.9637744525299, 32.68311161131511 191.7062513909252, 37.08114617903547 251.70479973696325 C 60.0589177784362 289.3744583724604, 97.71936393790833 288.20075463890237, 115.57087535887139 293.2370869083388 L 205.71064668073467 271.7895606105399 L 232.0673222827091 277.29643369898884 L 262.47979576141006 277.0110271340419 L 292.02402835177594 271.8015818040338 L 315.77598128874666 262.53633859729956 L 333.7356545723217 249.21529751383903 L 345.90304820250077 231.83845855365198 L 352.27816217928404 210.40582171673847 L 352.86099650267175 184.9173870030985 L 348.51979206099867 160.29719317779308 L 339.2545488542643 136.54524024082272 L 325.0652668824688 113.66152819218708 L 306.82018703394726 96.57009579694673 L 284.5193093086991 85.2709430551023 L 258.1626337067248 79.76406996665351 L 232.6741989930848 79.1812356432656 L 208.57494970078045 86.4768633439756 L 157.65172414682166 93.90363333822924 L 133.71523474634765 97.88612248325755 L 96.94465506840774 108.34270558659905 Z" fill="#45B7D1" stroke="#2c3e50" stroke-width="2.5" stroke-linecap="round" stroke-linejoin="round"/><path d="M 488.73560767590607 216.44989339019196 L 479.58848614072485 192.80383795309174 L 456.91257995735583 175.12793176972272 C 400.9744136460553 160.01066098081017, 424.3539445628997 167.80383795309166, 414.47121535181225 167.8038379530917 C 350.85714285714266 153.30490405117274, 368.2665245202557 182.59701492537312, 349.2963752665243 176.50959488272932 C 343.1194029850746 192.59701492537323, 339.9424307036246 205.7142857142856, 340.6183368869936 198.6567164179108 C 339.58848614072485 237.6545842217486, 336.58848614072474 249.65458422174862, 337.58848614072485 262.6545842217487 C 338.58848614072485 275.6545842217487, 343.58848614072485 287.65458422174873, 351.5884861407248 297.6545842217487 L 364.5884861407248 307.6545842217487 L 381.58848614072485 314.65458422174873 L 401.5884861407248 317.6545842217487 L 421.58848614072485 317.65458422174856 L 441.58848614072485 314.6545842217487 L 459.5884861407249 307.6545842217487 L 474.5884861407249 297.6545842217487 L 484.5884861407249 282.6545842217486 L 489.5884861407249 267.6545842217485 L 489.58848614072485 247.65458422174862 Z" fill="#FFEAA7" stroke="#2c3e50" stroke-width="2.5" stroke-linecap="round" stroke-linejoin="round"/><path d="M 193.63965884861398 -18.94456289978669 L 184.49253731343276 -42.590618336886905 L 161.8166311300638 -60.26652452025593 C 105.87846481876326 -75.38379530916848, 129.25799573560764 -67.59061833688699, 119.37526652452019 -67.59061833688696 C 55.7611940298506 -82.08955223880591, 73.17057569296364 -52.79744136460553, 110.49040511727065 -58.031982942430574 C 100.90191897654586 -54.73773987206812, 111.37100213219608 -48.443496801705834, 116.3113006396589 -41.85501066098044 C 105.89978678038375 -38.67803837953065, 104.60554371002115 -30.08955223880571, 117.54584221748394 -26.471215351812077 C 108.31130063965878 0.1748400852881673, 105.6353944562899 -9.147121535180872, 120.45842217484 11.087420042644254 L 125.78251599147112 45.820895522388355 L 115.49040511727074 104.84648187633294 L 129.52025586353935 102.7292110874204 L 146.9616204690831 101.02345415778271 L 161.84434968017047 95.46481876332658 L 204.57782515991477 98.69936034115167 L 204.226012793177 82.72921108742034 L 189.49253731343288 47.26012793176997 L 194.49253731343288 32.26012793176986 L 194.49253731343276 12.260127931769972 Z" fill="#4748a8" stroke="#4b4b4b" stroke-width="2" stroke-linecap="round" stroke-linejoin="round"/></svg>