<?xml version="1.0" encoding="utf-8"?>
<!DOCTYPE svg PUBLIC "-//W3C//DTD SVG 20010904//EN" "http://www.w3.org/TR/2001/REC-SVG-20010904/DTD/svg10.dtd">
<svg version="1.0" xmlns="http://www.w3.org/2000/svg" width="2002pt" height="2002pt" viewBox="0 0 2002 2002" style="" preserveAspectRatio="xMidYMid meet">
<g fill="#000000FE" stroke="#000000FE">
<path d="M 1068.247 366.048 C 1050.685 368.225 1036.274 374.348 1025.518 384.205 L 1018.906 390.263 1011.703 388.191 C 1007.741 387.051 1001.800 385.549 998.500 384.852 C 990.611 383.187 965.483 383.224 956.000 384.915 C 936.911 388.318 914.190 396.695 896.829 406.731 L 888.159 411.743 877.329 408.962 C 815.684 393.130 743.706 399.065 702.659 423.364 C 695.899 427.366 685.959 436.186 680.941 442.637 L 678.500 445.774 669.000 444.844 C 657.752 443.743 640.310 445.059 626.511 448.048 C 612.912 450.995 600.156 455.538 572.301 467.355 C 556.786 473.937 540.573 479.970 529.000 483.468 C 498.271 492.756 486.182 497.738 473.526 506.325 C 465.907 511.495 455.555 521.837 450.350 529.479 L 446.295 535.433 436.398 535.594 C 405.655 536.093 371.970 554.267 331.318 592.285 C 323.744 599.369 314.228 606.734 301.818 615.117 C 271.965 635.284 259.878 646.647 250.601 663.263 C 246.372 670.839 241.490 685.107 239.845 694.700 C 238.639 701.731 238.598 701.797 234.095 703.984 C 225.813 708.008 215.622 715.177 208.657 721.880 C 190.687 739.171 182.786 757.762 181.000 786.953 C 179.936 804.338 177.702 810.827 169.414 820.610 C 167.033 823.420 164.532 827.020 163.856 828.610 C 163.180 830.199 160.716 834.650 158.380 838.500 C 149.496 853.140 146.075 870.271 147.971 890.635 C 149.712 909.354 152.530 918.865 163.778 944.000 C 172.544 963.587 175.438 972.486 179.554 992.500 C 185.303 1020.459 188.930 1032.324 195.638 1045.116 C 206.325 1065.497 221.636 1075.364 242.577 1075.364 L 251.803 1075.364 253.276 1078.432 C 255.754 1083.593 262.236 1091.554 267.495 1095.897 C 270.243 1098.166 277.263 1102.450 283.096 1105.416 C 296.523 1112.243 301.870 1112.990 319.278 1110.469 C 342.162 1107.155 350.303 1108.311 360.278 1116.289 C 370.424 1124.403 379.479 1127.885 392.500 1128.680 C 403.665 1129.361 413.941 1127.660 435.170 1121.615 C 447.865 1118.000 453.942 1116.856 467.170 1115.594 C 476.152 1114.737 486.761 1113.126 490.747 1112.015 C 503.137 1108.561 518.590 1100.998 533.000 1091.335 L 539.500 1086.977 540.216 1092.738 C 541.262 1101.152 545.627 1113.893 550.066 1121.490 L 553.943 1128.124 549.527 1136.312 C 540.717 1152.647 536.364 1171.287 537.988 1185.728 C 539.403 1198.309 541.745 1204.247 551.290 1219.448 C 557.980 1230.101 564.129 1243.324 567.824 1255.000 C 569.477 1260.225 572.648 1270.254 574.870 1277.287 C 582.570 1301.658 590.677 1314.534 605.273 1325.575 C 613.300 1331.648 625.393 1337.436 635.500 1340.044 C 649.090 1343.551 669.660 1342.410 681.331 1337.503 C 684.252 1336.275 684.432 1336.367 688.050 1340.943 C 710.114 1368.857 770.419 1387.332 822.000 1381.980 C 850.477 1379.025 873.694 1371.239 898.032 1356.481 C 922.007 1341.943 946.466 1332.118 983.767 1322.043 C 989.963 1320.369 995.588 1319.018 996.267 1319.040 C 996.945 1319.062 999.525 1321.808 1002.000 1325.142 C 1013.152 1340.166 1029.134 1351.414 1048.000 1357.517 C 1055.097 1359.812 1058.811 1360.345 1070.500 1360.746 C 1091.723 1361.474 1108.268 1357.792 1127.286 1348.109 L 1136.967 1343.180 1144.234 1345.049 C 1148.230 1346.078 1152.783 1347.182 1154.350 1347.504 L 1157.200 1348.088 1148.835 1356.794 C 1131.585 1374.747 1121.819 1394.174 1113.593 1426.906 C 1107.823 1449.864 1106.526 1460.639 1106.541 1485.500 C 1106.555 1510.840 1107.886 1520.409 1113.988 1539.049 C 1120.774 1559.781 1130.100 1575.235 1144.443 1589.520 C 1161.979 1606.985 1184.698 1619.079 1213.836 1626.460 C 1246.056 1634.622 1276.493 1634.287 1309.500 1625.406 C 1315.000 1623.926 1321.975 1622.127 1325.000 1621.408 C 1328.025 1620.688 1333.200 1619.163 1336.500 1618.018 C 1339.800 1616.873 1347.000 1615.008 1352.500 1613.874 C 1363.155 1611.676 1372.442 1611.685 1393.342 1613.916 C 1412.196 1615.928 1429.672 1612.663 1448.500 1603.614 C 1466.422 1594.999 1482.433 1583.215 1508.500 1559.453 C 1516.200 1552.434 1526.775 1543.881 1532.000 1540.448 C 1541.388 1534.278 1546.753 1531.250 1581.008 1512.785 C 1614.032 1494.983 1633.815 1481.258 1650.000 1464.922 C 1670.173 1444.560 1683.175 1420.932 1689.070 1393.921 C 1691.707 1381.838 1694.292 1351.899 1692.993 1348.483 C 1692.447 1347.046 1692.000 1343.890 1692.000 1341.469 C 1692.000 1337.122 1689.364 1316.021 1688.429 1312.877 C 1687.993 1311.414 1688.614 1311.439 1694.703 1313.127 C 1722.645 1320.875 1744.099 1314.807 1752.986 1296.642 C 1754.638 1293.264 1756.368 1287.687 1756.830 1284.249 C 1757.292 1280.810 1757.856 1277.846 1758.085 1277.662 C 1758.313 1277.477 1761.641 1276.570 1765.479 1275.646 C 1782.744 1271.490 1797.281 1256.318 1807.315 1231.981 C 1814.984 1213.382 1819.431 1195.459 1825.575 1158.392 C 1829.601 1134.099 1831.929 1126.202 1841.322 1104.960 C 1850.478 1084.256 1851.500 1080.860 1851.387 1071.500 C 1851.299 1064.139 1850.753 1062.101 1844.563 1046.000 C 1833.501 1017.231 1828.558 996.288 1826.033 967.500 C 1824.214 946.757 1820.586 933.305 1814.115 923.308 C 1810.685 918.010 1796.811 904.000 1794.993 904.000 C 1794.574 904.000 1793.930 901.413 1793.563 898.250 C 1792.129 885.887 1788.883 875.499 1782.253 862.058 L 1775.622 848.616 1774.874 826.015 C 1773.982 799.085 1772.055 787.809 1766.385 776.332 C 1761.326 766.094 1752.126 756.785 1741.849 751.506 L 1734.198 747.576 1732.013 739.606 C 1725.799 716.930 1713.267 697.062 1698.198 685.996 L 1691.897 681.368 1691.472 674.191 C 1689.246 636.592 1657.634 598.984 1619.000 587.973 C 1614.254 586.621 1607.216 585.633 1599.833 585.284 L 1588.165 584.732 1587.525 578.616 C 1584.844 552.999 1578.106 535.775 1566.366 524.526 C 1552.959 511.680 1529.326 506.434 1475.818 504.426 L 1458.136 503.763 1457.498 499.987 C 1455.623 488.889 1446.139 476.546 1432.528 467.490 C 1418.924 458.438 1403.463 451.927 1380.000 445.368 C 1366.121 441.488 1359.381 438.376 1342.573 428.087 C 1317.830 412.941 1303.214 407.096 1288.002 406.265 C 1276.631 405.644 1268.941 407.283 1258.365 412.583 L 1251.229 416.158 1246.969 413.984 C 1244.626 412.789 1238.387 410.644 1233.105 409.217 C 1224.317 406.844 1221.653 406.606 1201.784 406.419 L 1180.069 406.215 1174.784 401.544 C 1161.861 390.121 1142.000 378.919 1124.106 372.962 C 1105.936 366.913 1083.585 364.147 1068.247 366.048 M 1105.176 377.036 C 1126.479 381.377 1151.167 393.032 1165.933 405.719 L 1169.366 408.669 1159.933 410.906 C 1154.745 412.137 1147.125 414.349 1143.000 415.822 C 1136.014 418.317 1135.500 418.698 1135.500 421.391 C 1135.500 426.450 1137.732 426.755 1148.919 423.220 C 1169.583 416.693 1177.316 415.553 1201.000 415.543 C 1220.349 415.534 1223.351 415.764 1231.000 417.841 C 1235.675 419.110 1241.942 421.465 1244.928 423.074 C 1247.913 424.683 1250.935 426.000 1251.643 426.000 C 1252.351 426.000 1255.062 424.648 1257.666 422.997 C 1269.161 415.707 1283.379 413.323 1297.108 416.384 C 1305.931 418.352 1322.196 426.039 1338.000 435.710 C 1354.639 445.894 1361.952 449.308 1376.000 453.453 C 1409.676 463.389 1426.683 471.697 1438.314 483.891 C 1443.738 489.577 1448.969 498.526 1448.990 502.155 C 1448.998 503.467 1448.223 503.734 1445.250 503.443 C 1416.794 500.664 1416.721 500.662 1415.328 502.566 C 1410.234 509.533 1419.107 511.366 1465.757 512.981 C 1497.647 514.085 1504.250 514.525 1519.765 516.581 C 1531.299 518.109 1545.717 521.792 1551.344 524.647 C 1567.245 532.717 1576.139 551.350 1578.871 582.318 C 1579.347 587.719 1580.253 592.653 1580.883 593.283 C 1581.645 594.045 1585.799 594.334 1593.265 594.146 C 1617.295 593.539 1635.622 601.080 1654.869 619.494 C 1664.646 628.848 1673.701 641.991 1677.889 652.907 C 1680.646 660.095 1683.844 675.489 1682.797 676.536 C 1682.530 676.803 1680.329 676.247 1677.906 675.301 C 1674.474 673.962 1670.406 673.586 1659.500 673.604 C 1646.943 673.624 1644.675 673.906 1637.500 676.338 C 1633.100 677.829 1627.475 680.051 1625.000 681.275 C 1621.218 683.145 1620.500 683.961 1620.500 686.391 C 1620.500 691.366 1622.869 691.752 1631.410 688.167 C 1657.339 677.283 1679.847 680.558 1698.257 697.893 C 1710.319 709.251 1718.297 723.592 1723.907 744.000 L 1726.518 753.500 1735.009 757.917 C 1745.822 763.541 1754.474 771.961 1758.729 781.000 C 1763.758 791.681 1765.106 800.023 1766.000 826.000 C 1766.446 838.925 1767.253 850.900 1767.796 852.612 C 1768.338 854.324 1771.054 859.949 1773.832 865.112 C 1780.817 878.097 1786.488 898.197 1782.750 896.720 C 1782.063 896.448 1777.599 894.605 1772.832 892.624 C 1768.065 890.642 1757.781 887.162 1749.981 884.890 L 1735.797 880.758 1733.719 882.837 C 1731.982 884.574 1731.822 885.314 1732.745 887.340 C 1733.574 889.160 1735.178 890.073 1739.175 891.002 C 1753.720 894.382 1783.608 905.938 1785.430 908.887 C 1785.819 909.516 1787.656 910.665 1789.513 911.441 C 1791.369 912.217 1795.775 915.738 1799.303 919.266 C 1810.534 930.497 1814.839 942.645 1817.458 970.500 C 1820.268 1000.395 1824.297 1017.525 1835.581 1047.566 C 1839.286 1057.430 1842.522 1067.572 1842.772 1070.105 C 1843.392 1076.386 1841.195 1083.425 1832.495 1103.037 C 1823.311 1123.738 1820.916 1132.105 1816.475 1159.000 C 1810.095 1197.644 1804.752 1217.507 1795.897 1235.500 C 1787.494 1252.573 1777.779 1262.415 1765.300 1266.497 C 1758.008 1268.882 1756.960 1268.420 1755.348 1262.112 C 1753.522 1254.969 1748.541 1245.791 1743.423 1240.138 C 1739.538 1235.847 1739.105 1235.631 1736.637 1236.756 C 1732.892 1238.462 1733.305 1241.051 1738.438 1248.022 C 1751.346 1265.557 1751.956 1288.084 1739.838 1299.699 C 1730.445 1308.700 1714.894 1310.042 1693.877 1303.663 C 1687.350 1301.681 1686.385 1301.071 1685.499 1298.364 C 1683.387 1291.911 1680.487 1290.487 1677.026 1294.203 L 1674.973 1296.406 1662.372 1290.094 C 1608.619 1263.168 1552.266 1245.223 1493.957 1236.463 C 1479.735 1234.326 1470.848 1233.692 1446.000 1233.042 C 1408.542 1232.060 1409.013 1232.174 1377.500 1216.556 C 1364.850 1210.286 1351.681 1204.214 1348.235 1203.063 C 1326.951 1195.949 1314.896 1197.890 1259.316 1217.385 C 1227.177 1228.658 1209.093 1234.426 1208.317 1233.650 C 1208.003 1233.337 1206.458 1233.746 1204.883 1234.561 C 1203.308 1235.375 1197.628 1237.016 1192.260 1238.208 C 1184.220 1239.992 1179.239 1240.378 1164.000 1240.399 C 1130.234 1240.444 1109.860 1235.588 1094.197 1223.760 C 1086.887 1218.239 1083.383 1217.628 1082.362 1221.694 C 1081.776 1224.028 1082.355 1225.003 1086.691 1228.990 C 1095.635 1237.214 1109.767 1243.401 1126.906 1246.596 C 1131.633 1247.477 1135.676 1248.367 1135.892 1248.574 C 1136.741 1249.389 1131.366 1252.935 1129.234 1252.967 C 1127.631 1252.990 1126.463 1254.058 1125.245 1256.613 C 1121.891 1263.646 1093.400 1279.785 1068.357 1288.837 C 1057.164 1292.883 1031.719 1300.388 1011.813 1305.516 C 1001.923 1308.064 1001.004 1308.147 999.492 1306.634 C 998.593 1305.736 997.410 1305.000 996.863 1305.000 C 994.744 1305.000 992.000 1307.152 992.000 1308.814 C 992.000 1310.220 988.460 1311.552 973.657 1315.716 C 940.408 1325.067 916.984 1334.683 894.289 1348.298 C 874.759 1360.014 860.646 1365.819 841.908 1369.843 C 798.620 1379.138 746.621 1371.566 714.067 1351.226 C 706.699 1346.622 693.000 1334.751 693.000 1332.969 C 693.000 1332.645 696.038 1330.382 699.750 1327.941 C 714.048 1318.538 737.000 1293.139 737.000 1286.719 C 737.000 1285.167 736.336 1283.682 735.498 1283.361 C 732.330 1282.145 729.342 1284.251 724.545 1291.078 C 718.120 1300.224 706.232 1312.359 697.911 1318.267 C 672.962 1335.982 646.544 1338.188 620.557 1324.727 C 614.639 1321.662 610.210 1318.290 603.876 1312.027 C 593.911 1302.174 589.483 1294.166 583.536 1275.250 C 581.591 1269.063 578.425 1258.989 576.500 1252.865 C 572.406 1239.841 566.377 1226.733 559.290 1215.448 C 548.915 1198.925 546.823 1192.693 546.884 1178.500 C 546.946 1164.428 551.528 1149.769 560.466 1135.056 C 562.410 1131.856 563.987 1128.622 563.972 1127.869 C 563.956 1127.116 562.147 1123.800 559.952 1120.500 C 551.019 1107.071 546.967 1090.354 548.979 1075.235 C 552.828 1046.310 574.151 1018.552 606.821 999.940 C 614.538 995.543 616.767 993.679 620.409 988.575 C 626.763 979.671 643.366 964.319 653.315 958.149 C 668.489 948.739 686.036 942.209 706.500 938.356 C 713.108 937.112 722.227 936.587 740.808 936.382 L 766.115 936.102 779.196 923.500 C 802.725 900.832 823.674 885.352 844.012 875.605 C 858.448 868.686 870.050 864.934 889.324 860.952 C 907.894 857.115 921.598 853.181 938.000 846.979 C 972.712 833.853 1004.681 817.442 1033.500 797.954 C 1057.243 781.898 1077.483 763.052 1088.148 747.069 C 1090.926 742.906 1093.344 739.348 1093.521 739.162 C 1093.698 738.976 1095.838 739.993 1098.277 741.422 C 1110.236 748.431 1127.901 752.096 1149.949 752.143 C 1163.628 752.173 1165.547 751.973 1166.699 750.397 C 1168.433 748.026 1168.339 746.482 1166.339 744.482 C 1164.950 743.093 1163.431 742.931 1157.089 743.491 C 1134.742 745.465 1102.014 737.431 1097.065 728.756 C 1096.204 727.247 1094.690 726.010 1093.699 726.006 C 1089.089 725.990 1078.715 709.174 1075.496 696.500 C 1073.243 687.632 1071.975 670.261 1072.680 657.939 L 1073.300 647.094 1070.654 645.888 C 1068.394 644.859 1067.700 644.961 1065.897 646.591 C 1063.847 648.445 1063.800 649.100 1064.257 669.500 C 1064.642 686.705 1065.112 691.946 1066.858 698.500 C 1069.709 709.206 1075.932 721.596 1081.655 727.962 L 1086.334 733.165 1084.496 736.333 C 1077.192 748.922 1058.779 768.089 1041.314 781.282 C 999.415 812.932 938.369 841.668 893.158 851.022 C 865.656 856.712 851.202 861.473 834.573 870.319 C 815.601 880.412 798.616 893.130 775.703 914.402 L 762.082 927.047 739.291 927.379 C 721.517 927.637 713.969 928.174 705.000 929.818 C 681.238 934.175 662.883 941.231 645.725 952.605 C 635.010 959.709 618.858 974.869 613.266 983.072 C 610.986 986.416 607.915 988.934 601.825 992.452 C 579.867 1005.137 562.809 1021.624 551.285 1041.302 C 547.573 1047.640 542.234 1062.027 540.500 1070.365 C 539.959 1072.968 539.616 1073.173 536.765 1072.603 C 531.302 1071.510 522.633 1067.025 518.831 1063.324 C 514.418 1059.028 510.782 1051.233 506.970 1037.895 C 502.880 1023.587 499.975 1017.959 492.653 1010.163 C 489.082 1006.361 484.996 1000.952 483.573 998.144 C 478.274 987.688 477.745 983.309 477.099 944.564 L 476.500 908.628 470.876 905.343 C 467.783 903.536 462.158 898.734 458.376 894.671 C 442.628 877.754 432.394 853.106 429.708 825.625 C 428.651 814.816 428.344 813.658 426.278 812.717 C 424.475 811.895 423.579 812.071 421.920 813.572 C 420.013 815.298 419.890 816.155 420.496 823.481 C 423.488 859.641 440.852 895.635 462.496 910.542 L 467.821 914.209 468.244 947.855 C 468.628 978.353 468.868 982.231 470.809 989.314 C 473.704 999.875 478.029 1007.634 484.985 1014.742 C 492.192 1022.107 493.966 1025.552 498.572 1041.123 C 503.041 1056.227 506.747 1063.799 512.474 1069.526 C 516.729 1073.781 527.415 1080.000 530.471 1080.000 C 533.575 1080.000 531.780 1081.709 522.750 1087.355 C 503.529 1099.373 487.856 1105.044 470.000 1106.443 C 454.131 1107.686 447.126 1108.958 431.800 1113.383 C 412.714 1118.894 403.277 1120.430 392.733 1119.744 C 382.529 1119.081 375.350 1116.422 367.500 1110.399 C 354.007 1100.047 343.696 1098.121 319.924 1101.511 C 303.321 1103.879 298.212 1103.237 286.812 1097.349 C 275.362 1091.435 268.897 1086.323 264.518 1079.718 C 256.559 1067.716 253.947 1052.141 255.891 1028.271 C 257.252 1011.559 256.950 1010.000 252.353 1010.000 C 249.027 1010.000 248.356 1012.317 247.002 1028.479 C 246.144 1038.713 246.135 1044.830 246.966 1052.368 C 247.581 1057.941 248.178 1063.400 248.292 1064.500 C 248.462 1066.132 247.817 1066.557 244.790 1066.808 C 233.523 1067.743 219.890 1062.008 211.596 1052.843 C 201.355 1041.526 195.197 1025.337 188.552 992.261 C 184.278 970.985 180.715 959.964 171.495 939.500 C 159.453 912.775 156.687 901.908 156.602 881.000 C 156.517 859.921 159.498 851.475 174.234 831.032 C 181.272 821.268 183.645 818.789 190.208 814.339 C 205.304 804.105 223.888 800.803 243.499 804.869 C 257.944 807.864 265.958 812.138 275.111 821.729 C 281.649 828.581 290.941 841.077 292.481 845.090 C 292.892 846.161 290.416 847.187 282.262 849.325 C 276.343 850.876 267.900 853.575 263.500 855.323 C 256.077 858.271 255.500 858.709 255.500 861.391 C 255.500 866.304 257.864 866.775 266.689 863.618 C 293.053 854.187 313.479 850.919 323.500 854.529 C 325.700 855.321 328.320 855.977 329.322 855.985 C 331.921 856.006 338.970 860.338 342.694 864.204 C 346.813 868.478 352.448 877.911 355.081 884.940 C 356.227 887.998 359.345 898.375 362.010 908.000 C 369.398 934.687 374.770 946.349 384.000 955.738 C 386.475 958.255 394.186 964.054 401.135 968.623 C 415.050 977.774 420.497 983.202 425.057 992.464 C 430.681 1003.887 430.010 1016.755 423.007 1031.775 C 419.970 1038.289 419.978 1040.383 423.045 1042.024 C 426.163 1043.693 428.169 1041.916 431.632 1034.421 C 437.808 1021.053 439.424 1008.886 436.508 997.693 C 432.753 983.275 423.902 972.837 404.967 960.494 C 398.073 956.001 390.795 950.410 388.793 948.071 C 381.751 939.844 376.247 926.971 370.438 905.141 C 362.097 873.800 354.924 860.606 341.505 851.928 L 335.149 847.818 336.980 843.546 C 341.723 832.483 352.013 817.981 361.073 809.593 C 380.612 791.503 407.201 785.611 447.030 790.545 C 461.959 792.394 464.000 792.090 464.000 788.016 C 464.000 786.186 463.308 784.700 462.171 784.091 C 458.113 781.920 431.769 779.757 416.000 780.300 C 399.232 780.878 390.542 782.595 378.248 787.761 C 359.080 795.814 342.497 812.761 330.875 836.172 L 326.651 844.681 314.473 844.590 L 302.294 844.500 299.128 838.786 C 297.386 835.643 293.254 829.479 289.945 825.088 C 273.697 803.524 256.024 794.800 228.500 794.754 C 213.719 794.730 204.606 796.646 193.968 802.016 C 187.775 805.143 187.728 805.149 188.385 802.834 C 188.750 801.550 189.476 794.200 189.998 786.500 C 191.370 766.305 194.600 755.393 202.937 742.793 C 211.323 730.119 224.686 718.641 239.951 710.998 C 247.117 707.410 267.153 700.610 273.763 699.522 C 278.367 698.764 280.545 696.294 279.504 693.013 C 278.492 689.824 275.791 689.828 263.900 693.033 C 257.630 694.723 251.516 696.354 250.314 696.657 C 248.133 697.208 248.131 697.197 249.554 691.099 C 251.744 681.713 256.528 670.173 261.165 663.094 C 270.304 649.141 281.294 639.503 310.031 620.242 C 321.436 612.598 330.138 605.793 338.095 598.297 C 373.753 564.706 406.024 546.423 433.419 544.293 C 440.013 543.781 441.238 543.914 440.740 545.089 C 440.411 545.865 438.568 550.170 436.645 554.654 C 434.721 559.139 431.988 566.479 430.571 570.965 C 427.614 580.325 428.135 583.000 432.914 583.000 C 436.039 583.000 435.801 583.423 440.487 569.500 C 451.055 538.099 466.951 518.400 491.500 506.283 C 501.216 501.488 506.930 499.430 527.000 493.500 C 547.582 487.418 550.805 486.228 576.500 475.214 C 614.812 458.791 632.598 453.938 655.500 453.659 C 662.650 453.571 671.963 453.854 676.196 454.287 L 683.891 455.074 687.298 449.787 C 701.200 428.211 735.480 414.139 784.500 409.885 C 809.531 407.713 844.283 410.251 869.013 416.057 L 878.397 418.260 875.949 420.178 C 857.598 434.551 855.262 437.200 858.011 440.513 C 860.251 443.212 863.113 442.079 871.297 435.250 C 882.541 425.868 899.471 414.894 912.500 408.542 C 946.313 392.057 979.883 387.876 1008.278 396.611 C 1022.255 400.911 1021.438 400.994 1027.459 394.677 C 1037.423 384.223 1050.955 377.584 1067.500 375.031 C 1076.117 373.701 1093.299 374.616 1105.176 377.036 M 1395.653 1235.125 C 1409.312 1240.594 1418.215 1241.847 1443.250 1241.820 C 1476.102 1241.786 1500.280 1245.067 1540.848 1255.066 C 1571.821 1262.699 1607.506 1274.780 1634.500 1286.771 C 1642.985 1290.540 1677.082 1306.899 1677.860 1307.575 C 1679.173 1308.714 1683.837 1340.496 1682.839 1341.495 C 1682.578 1341.755 1676.743 1339.065 1669.870 1335.516 C 1623.120 1311.377 1556.896 1296.418 1463.000 1288.787 C 1438.018 1286.757 1353.213 1287.082 1329.000 1289.300 C 1307.645 1291.257 1280.025 1295.061 1267.500 1297.770 C 1259.661 1299.465 1259.494 1299.564 1259.192 1302.684 C 1258.717 1307.578 1260.912 1308.168 1271.528 1306.000 C 1338.122 1292.396 1441.559 1292.022 1529.470 1305.067 C 1594.963 1314.785 1647.416 1330.888 1679.397 1351.093 L 1684.294 1354.187 1683.652 1365.436 C 1682.039 1393.673 1675.227 1415.572 1661.511 1436.614 L 1655.884 1445.247 1651.577 1437.690 C 1638.610 1414.937 1619.178 1395.046 1594.000 1378.755 C 1547.460 1348.642 1479.247 1328.898 1396.000 1321.445 C 1371.636 1319.264 1321.075 1318.480 1296.000 1319.894 C 1266.303 1321.570 1235.095 1325.314 1207.000 1330.574 C 1204.583 1331.026 1204.572 1331.004 1206.663 1329.907 C 1207.853 1329.283 1209.041 1327.952 1209.303 1326.951 C 1209.858 1324.826 1207.472 1321.000 1205.591 1321.000 C 1204.879 1321.000 1199.279 1323.462 1193.148 1326.471 C 1187.017 1329.480 1182.000 1331.577 1182.000 1331.130 C 1182.000 1329.479 1198.806 1313.238 1206.855 1307.111 C 1232.886 1287.295 1272.780 1267.612 1318.500 1252.027 C 1338.520 1245.203 1382.846 1232.303 1387.174 1232.041 C 1387.545 1232.018 1391.361 1233.406 1395.653 1235.125 M 1320.500 1353.524 C 1376.367 1359.163 1425.709 1373.114 1471.000 1396.078 C 1502.072 1411.832 1528.229 1430.437 1552.299 1453.905 C 1569.780 1470.950 1591.064 1496.425 1589.231 1498.111 C 1588.829 1498.480 1578.150 1504.301 1565.500 1511.047 C 1539.564 1524.876 1530.511 1530.181 1520.684 1537.311 L 1513.868 1542.257 1512.263 1539.964 C 1502.738 1526.366 1477.809 1497.835 1459.652 1479.753 C 1396.435 1416.796 1326.981 1379.613 1252.000 1368.584 C 1221.926 1364.161 1178.719 1365.214 1152.527 1371.009 C 1144.211 1372.848 1147.619 1369.157 1157.000 1366.163 C 1178.604 1359.268 1214.025 1353.478 1246.000 1351.615 C 1259.716 1350.815 1305.215 1351.982 1320.500 1353.524 M 1374.000 1329.019 C 1480.052 1335.017 1563.999 1361.326 1612.524 1403.771 C 1626.685 1416.159 1640.274 1433.620 1646.735 1447.733 L 1649.327 1453.393 1640.913 1461.383 C 1631.612 1470.216 1617.408 1481.111 1605.590 1488.476 C 1598.003 1493.205 1597.862 1493.248 1596.446 1491.226 C 1582.931 1471.931 1554.834 1441.993 1537.000 1427.886 C 1493.393 1393.390 1445.172 1370.122 1388.182 1356.075 C 1349.158 1346.457 1315.327 1342.567 1271.000 1342.602 C 1231.488 1342.634 1205.679 1345.258 1172.128 1352.654 L 1163.756 1354.500 1167.411 1351.674 C 1175.510 1345.412 1220.571 1335.956 1263.519 1331.506 C 1295.718 1328.170 1340.976 1327.151 1374.000 1329.019 M 1148.206 1396.366 C 1169.207 1404.485 1190.976 1416.230 1215.000 1432.404 C 1277.805 1474.688 1336.290 1539.810 1355.681 1589.050 C 1361.760 1604.487 1361.679 1604.000 1358.169 1604.000 C 1356.538 1604.000 1348.882 1605.589 1341.156 1607.530 L 1327.109 1611.061 1320.950 1608.558 C 1312.561 1605.149 1303.811 1600.156 1290.077 1590.940 C 1233.469 1552.956 1173.627 1483.312 1148.459 1426.126 C 1144.867 1417.963 1136.000 1393.954 1136.000 1392.389 C 1136.000 1391.694 1136.762 1391.942 1148.206 1396.366 M 1253.500 1377.903 C 1337.793 1391.679 1411.715 1436.576 1481.697 1516.500 C 1489.469 1525.376 1506.993 1547.293 1506.997 1548.142 C 1507.005 1549.969 1476.664 1575.758 1465.929 1583.048 L 1460.104 1587.004 1457.715 1583.752 C 1456.401 1581.963 1452.357 1576.186 1448.728 1570.913 C 1419.840 1528.941 1378.823 1485.735 1339.886 1456.262 C 1287.781 1416.821 1227.437 1389.782 1172.658 1381.332 C 1166.246 1380.343 1161.000 1379.255 1161.000 1378.914 C 1161.000 1378.574 1165.838 1377.744 1171.750 1377.070 C 1177.663 1376.396 1183.175 1375.682 1184.000 1375.482 C 1184.825 1375.283 1197.875 1375.268 1213.000 1375.449 C 1235.122 1375.714 1243.042 1376.194 1253.500 1377.903 M 1171.000 1390.032 C 1270.075 1406.136 1367.674 1472.898 1440.033 1574.064 C 1444.725 1580.626 1449.355 1587.331 1450.320 1588.965 L 1452.076 1591.937 1445.263 1595.368 C 1429.565 1603.273 1409.414 1606.979 1392.748 1605.027 C 1387.662 1604.431 1380.575 1603.674 1377.000 1603.345 L 1370.500 1602.747 1367.163 1593.624 C 1359.784 1573.452 1347.573 1551.966 1330.620 1529.326 C 1317.093 1511.260 1307.899 1500.770 1289.560 1482.478 C 1249.459 1442.478 1204.694 1410.955 1160.381 1391.511 C 1150.790 1387.302 1152.628 1387.046 1171.000 1390.032 M 1143.419 1436.594 C 1155.338 1461.763 1177.249 1494.458 1199.984 1521.000 C 1216.521 1540.305 1246.114 1568.829 1265.524 1584.172 C 1275.713 1592.226 1293.075 1603.944 1303.917 1610.083 L 1313.334 1615.415 1304.417 1617.684 C 1299.513 1618.932 1290.550 1620.698 1284.500 1621.609 L 1273.500 1623.266 1264.000 1620.079 C 1220.573 1605.510 1185.417 1574.420 1160.531 1528.575 C 1147.355 1504.304 1136.556 1471.785 1132.609 1444.500 C 1130.641 1430.890 1129.645 1414.893 1130.518 1410.916 C 1131.208 1407.776 1131.406 1408.059 1135.175 1417.568 C 1137.341 1423.031 1141.050 1431.592 1143.419 1436.594 M 1344.107 1210.999 C 1347.623 1212.164 1356.047 1215.892 1362.826 1219.285 C 1372.125 1223.939 1374.703 1225.627 1373.326 1226.163 C 1372.322 1226.554 1364.075 1228.916 1355.000 1231.412 C 1290.846 1249.060 1233.682 1274.818 1199.491 1301.485 C 1188.989 1309.677 1175.627 1323.866 1170.000 1332.802 C 1165.766 1339.526 1163.049 1341.506 1161.499 1338.998 C 1161.158 1338.447 1161.612 1334.089 1162.507 1329.313 C 1167.443 1302.970 1184.549 1268.274 1201.366 1250.493 L 1207.500 1244.007 1231.500 1236.086 C 1244.700 1231.729 1266.075 1224.547 1279.000 1220.125 C 1291.925 1215.703 1306.775 1211.168 1312.000 1210.047 C 1323.539 1207.572 1334.761 1207.905 1344.107 1210.999 M 1124.487 1450.500 C 1132.310 1501.626 1158.978 1553.934 1194.598 1588.019 C 1208.377 1601.204 1218.671 1608.631 1236.500 1618.249 L 1245.500 1623.104 1240.000 1622.467 C 1222.954 1620.495 1200.627 1614.202 1185.465 1607.096 C 1165.662 1597.816 1147.081 1582.159 1136.266 1565.636 C 1115.510 1533.929 1109.531 1485.964 1120.232 1437.000 L 1121.433 1431.500 1122.119 1435.500 C 1122.495 1437.700 1123.561 1444.450 1124.487 1450.500 M 1188.369 1251.734 C 1172.188 1272.792 1158.751 1302.244 1153.895 1327.293 C 1152.818 1332.850 1151.803 1337.531 1151.639 1337.695 C 1150.977 1338.356 1141.000 1334.854 1141.000 1333.961 C 1141.000 1333.433 1139.685 1333.000 1138.078 1333.000 C 1135.666 1333.000 1134.968 1332.431 1134.086 1329.750 C 1129.082 1314.543 1126.645 1287.910 1128.990 1274.044 L 1130.250 1266.588 1139.255 1258.044 L 1148.260 1249.500 1160.880 1249.751 C 1167.821 1249.888 1176.200 1249.610 1179.500 1249.132 C 1182.800 1248.653 1186.791 1248.203 1188.369 1248.131 L 1191.237 1248.000 1188.369 1251.734 M 1119.149 1285.848 C 1118.914 1293.782 1119.377 1301.464 1120.550 1309.098 C 1123.254 1326.694 1123.617 1326.103 1115.000 1318.137 C 1110.875 1314.324 1105.250 1308.257 1102.500 1304.655 C 1099.750 1301.053 1096.729 1297.832 1095.788 1297.498 C 1093.241 1296.593 1090.000 1298.745 1090.000 1301.341 C 1090.000 1306.074 1109.281 1326.697 1120.833 1334.321 L 1127.167 1338.500 1118.857 1342.398 C 1109.223 1346.918 1104.579 1347.677 1096.640 1346.029 C 1080.696 1342.719 1063.161 1329.041 1055.673 1314.073 C 1053.653 1310.035 1052.017 1306.004 1052.038 1305.116 C 1052.065 1303.952 1055.254 1302.455 1063.443 1299.763 C 1079.893 1294.355 1097.039 1286.877 1108.500 1280.111 C 1114.000 1276.865 1118.725 1274.161 1119.000 1274.104 C 1119.275 1274.047 1119.342 1279.332 1119.149 1285.848 M 1043.647 1308.750 C 1049.103 1325.096 1063.042 1341.271 1078.104 1348.736 L 1084.109 1351.713 1079.728 1352.314 C 1077.318 1352.644 1071.307 1352.497 1066.371 1351.986 C 1045.406 1349.817 1029.226 1341.597 1014.155 1325.459 C 1010.220 1321.245 1007.000 1317.410 1007.000 1316.937 C 1007.000 1316.464 1008.913 1315.553 1011.250 1314.912 C 1013.588 1314.272 1020.900 1312.267 1027.500 1310.457 C 1041.647 1306.578 1042.878 1306.447 1043.647 1308.750 "/></g>
<g fill="#82BCE8FE" stroke="#82BCE8FE">
<path d="M 966.500 835.151 C 936.748 848.498 917.339 855.022 890.882 860.567 C 870.070 864.929 858.626 868.601 844.012 875.605 C 823.674 885.352 802.725 900.832 779.196 923.500 L 766.115 936.102 740.808 936.382 C 722.227 936.587 713.108 937.112 706.500 938.356 C 686.036 942.209 668.489 948.739 653.315 958.149 C 643.366 964.319 626.763 979.671 620.409 988.575 C 616.767 993.679 614.538 995.543 606.821 999.940 C 574.151 1018.552 552.828 1046.310 548.979 1075.235 C 546.967 1090.354 551.019 1107.071 559.952 1120.500 C 562.147 1123.800 563.956 1127.116 563.972 1127.869 C 563.987 1128.622 562.410 1131.856 560.466 1135.056 C 551.528 1149.769 546.946 1164.428 546.884 1178.500 C 546.823 1192.693 548.915 1198.925 559.290 1215.448 C 566.340 1226.674 572.402 1239.828 576.419 1252.615 C 578.300 1258.602 581.466 1268.675 583.456 1275.000 C 589.488 1294.177 593.881 1302.144 603.876 1312.027 C 610.210 1318.290 614.639 1321.662 620.557 1324.727 C 651.896 1340.960 684.305 1334.277 712.045 1305.860 C 716.195 1301.609 721.820 1294.957 724.545 1291.078 C 729.342 1284.251 732.330 1282.145 735.498 1283.361 C 736.336 1283.682 737.000 1285.167 737.000 1286.719 C 737.000 1293.139 714.048 1318.538 699.750 1327.941 C 696.038 1330.382 693.000 1332.645 693.000 1332.969 C 693.000 1333.293 695.813 1336.329 699.250 1339.715 C 727.747 1367.791 790.119 1380.963 841.908 1369.843 C 860.646 1365.819 874.759 1360.014 894.289 1348.298 C 916.984 1334.683 940.408 1325.067 973.657 1315.716 C 988.460 1311.552 992.000 1310.220 992.000 1308.814 C 992.000 1307.152 994.744 1305.000 996.863 1305.000 C 997.410 1305.000 998.593 1305.736 999.492 1306.634 C 1001.004 1308.147 1001.923 1308.064 1011.813 1305.516 C 1031.719 1300.388 1057.164 1292.883 1068.357 1288.837 C 1093.400 1279.785 1121.891 1263.646 1125.245 1256.613 C 1126.463 1254.058 1127.631 1252.990 1129.234 1252.967 C 1131.366 1252.935 1136.741 1249.389 1135.892 1248.574 C 1135.676 1248.367 1131.633 1247.477 1126.906 1246.596 C 1109.767 1243.401 1095.635 1237.214 1086.691 1228.990 C 1082.355 1225.003 1081.776 1224.028 1082.362 1221.694 C 1083.383 1217.628 1086.887 1218.239 1094.197 1223.760 C 1109.860 1235.588 1130.234 1240.444 1164.000 1240.399 C 1179.239 1240.378 1184.220 1239.992 1192.260 1238.208 C 1197.628 1237.016 1203.308 1235.375 1204.883 1234.561 C 1206.458 1233.746 1208.003 1233.337 1208.317 1233.650 C 1209.093 1234.426 1227.177 1228.658 1259.316 1217.385 C 1292.906 1205.604 1303.140 1202.561 1316.485 1200.386 C 1335.006 1197.368 1343.128 1199.521 1377.500 1216.556 C 1409.013 1232.174 1408.542 1232.060 1446.000 1233.042 C 1470.848 1233.692 1479.735 1234.326 1493.957 1236.463 C 1552.266 1245.223 1608.619 1263.168 1662.372 1290.094 L 1674.973 1296.406 1677.026 1294.203 C 1680.487 1290.487 1683.387 1291.911 1685.499 1298.364 C 1686.385 1301.071 1687.350 1301.681 1693.877 1303.663 C 1714.894 1310.042 1730.445 1308.700 1739.838 1299.699 C 1751.956 1288.084 1751.346 1265.557 1738.438 1248.022 C 1733.305 1241.051 1732.892 1238.462 1736.637 1236.756 C 1739.105 1235.631 1739.538 1235.847 1743.423 1240.138 C 1748.545 1245.796 1753.525 1254.976 1755.343 1262.112 C 1756.582 1266.976 1756.997 1267.521 1759.608 1267.718 C 1761.199 1267.838 1762.027 1267.718 1761.450 1267.451 C 1760.758 1267.132 1760.655 1264.671 1761.148 1260.233 C 1761.560 1256.530 1761.920 1248.096 1761.949 1241.491 C 1761.994 1230.785 1761.796 1229.354 1760.119 1228.306 C 1758.437 1227.256 1758.187 1225.403 1757.758 1210.816 C 1757.222 1192.593 1755.770 1186.262 1749.198 1173.500 C 1744.805 1164.968 1732.094 1151.736 1723.824 1147.085 L 1718.148 1143.892 1717.508 1137.196 C 1714.553 1106.259 1705.610 1088.582 1689.252 1081.348 C 1672.162 1073.790 1648.819 1076.440 1606.704 1090.719 C 1592.062 1095.684 1586.495 1097.171 1585.323 1096.432 C 1584.451 1095.882 1582.551 1092.073 1581.099 1087.966 C 1577.558 1077.946 1572.086 1068.400 1564.898 1059.698 C 1536.086 1024.824 1476.480 996.621 1421.688 991.939 C 1406.638 990.652 1385.972 991.676 1348.000 995.588 C 1333.975 997.032 1314.244 998.504 1304.154 998.857 L 1285.807 999.500 1283.587 1006.500 C 1278.767 1021.703 1268.971 1036.910 1255.762 1049.694 L 1248.329 1056.888 1255.907 1059.974 C 1267.810 1064.822 1277.000 1070.647 1277.000 1073.345 C 1277.000 1075.995 1275.264 1078.000 1272.971 1078.000 C 1272.075 1078.000 1267.980 1076.084 1263.871 1073.743 C 1249.640 1065.633 1233.657 1061.476 1217.000 1061.553 C 1192.166 1061.667 1166.393 1070.283 1121.254 1093.560 C 1110.118 1099.302 1100.566 1104.000 1100.027 1104.000 C 1099.487 1104.000 1098.329 1102.905 1097.452 1101.567 C 1096.277 1099.774 1096.125 1098.636 1096.871 1097.240 C 1098.213 1094.733 1143.986 1071.715 1160.500 1065.243 C 1189.033 1054.060 1210.855 1050.210 1230.000 1052.981 C 1236.127 1053.868 1236.713 1053.774 1240.215 1051.349 C 1245.613 1047.611 1259.907 1032.431 1264.299 1025.772 C 1269.218 1018.315 1274.923 1006.249 1275.651 1001.763 L 1276.226 998.219 1270.863 997.492 C 1258.895 995.872 1238.800 988.255 1231.750 982.667 C 1229.317 980.738 1229.501 976.338 1232.072 974.961 C 1233.797 974.039 1235.117 974.432 1239.940 977.304 C 1247.221 981.642 1256.793 985.494 1265.647 987.649 C 1277.526 990.541 1317.541 990.100 1348.500 986.737 C 1404.707 980.630 1431.010 981.397 1462.430 990.062 C 1466.242 991.113 1469.530 991.803 1469.738 991.595 C 1469.945 991.388 1473.683 977.572 1478.044 960.893 L 1485.974 930.568 1482.737 927.181 C 1472.449 916.417 1444.383 896.450 1419.508 882.200 C 1409.336 876.373 1405.336 873.544 1404.857 871.842 C 1404.496 870.554 1404.155 870.063 1404.100 870.750 C 1404.032 871.601 1402.074 872.000 1397.968 872.000 C 1383.256 872.000 1369.597 879.844 1344.000 902.993 C 1328.535 916.979 1321.329 922.416 1313.107 926.301 C 1307.420 928.989 1305.764 929.307 1298.107 929.186 C 1284.394 928.970 1265.972 923.130 1262.755 917.980 C 1262.121 916.964 1260.699 916.547 1258.643 916.776 C 1255.884 917.083 1254.510 916.171 1247.396 909.313 C 1242.939 905.016 1238.140 899.957 1236.731 898.072 L 1234.170 894.644 1228.440 899.881 C 1222.432 905.372 1215.224 909.455 1206.000 912.592 C 1197.594 915.452 1180.867 915.232 1170.840 912.131 L 1163.179 909.762 1159.340 912.823 C 1147.339 922.392 1135.384 927.007 1122.645 926.988 C 1106.027 926.964 1094.366 921.441 1079.464 906.538 C 1068.989 896.062 1057.988 881.080 1057.996 877.300 C 1057.998 876.090 1058.701 874.707 1059.558 874.228 C 1060.805 873.530 1059.131 871.451 1051.159 863.799 C 1034.130 847.455 1013.592 835.463 996.000 831.592 C 991.875 830.685 986.925 829.600 985.000 829.182 C 981.967 828.523 979.501 829.318 966.500 835.151 M 947.954 998.445 C 949.488 1000.293 948.945 1004.065 947.000 1005.074 C 946.175 1005.502 942.149 1006.612 938.053 1007.540 C 920.469 1011.526 905.903 1020.489 893.685 1034.843 C 891.036 1037.954 884.823 1046.472 879.878 1053.771 L 870.887 1067.042 875.193 1066.271 C 877.562 1065.847 887.600 1065.514 897.500 1065.532 C 917.464 1065.567 925.158 1067.022 937.012 1073.006 C 943.681 1076.373 945.653 1078.911 944.000 1082.000 C 942.484 1084.832 939.802 1084.503 931.639 1080.487 C 922.433 1075.956 911.829 1073.995 896.662 1074.018 C 882.899 1074.039 868.718 1075.818 853.732 1079.405 C 838.525 1083.044 833.686 1083.751 808.500 1086.017 C 772.086 1089.292 761.392 1091.657 751.780 1098.563 C 746.311 1102.492 742.663 1102.645 741.706 1098.985 C 740.524 1094.464 750.354 1087.346 762.937 1083.611 C 771.653 1081.023 784.150 1079.180 804.500 1077.478 C 838.740 1074.616 852.939 1071.626 859.454 1065.906 C 861.335 1064.255 867.447 1056.173 873.036 1047.947 C 888.889 1024.615 899.721 1014.129 916.804 1005.577 C 924.140 1001.904 939.224 997.210 944.128 997.073 C 945.573 997.033 947.295 997.650 947.954 998.445 M 862.250 1163.250 C 863.149 1163.938 865.684 1168.625 867.886 1173.667 C 879.126 1199.415 888.455 1212.859 902.340 1223.321 C 911.750 1230.412 918.413 1234.015 930.234 1238.405 C 938.444 1241.455 945.086 1243.003 969.721 1247.608 C 972.584 1248.144 974.002 1250.870 972.914 1253.750 C 971.824 1256.637 968.656 1256.672 954.301 1253.957 C 933.276 1249.979 916.656 1243.842 903.717 1235.277 C 899.747 1232.650 895.994 1230.172 895.375 1229.771 C 894.685 1229.323 890.958 1233.009 885.732 1239.305 C 858.019 1272.698 832.256 1287.564 796.173 1290.986 C 781.556 1292.372 779.571 1292.283 776.897 1290.117 C 774.845 1288.456 774.712 1287.928 775.765 1285.617 C 776.843 1283.251 777.490 1283.000 782.518 1283.000 C 791.027 1283.000 806.368 1281.080 814.523 1278.994 C 830.647 1274.870 844.707 1267.261 858.648 1255.114 C 865.579 1249.074 884.601 1227.704 886.379 1223.959 C 887.071 1222.502 886.220 1220.946 882.372 1216.628 C 875.840 1209.300 869.219 1198.148 861.979 1182.282 C 855.697 1168.514 854.870 1164.758 857.750 1163.080 C 860.025 1161.755 860.312 1161.766 862.250 1163.250 "/></g>
<g fill="#DC3E20FE" stroke="#DC3E20FE">
<path d="M 1062.000 376.499 C 1047.726 379.378 1036.472 385.512 1027.214 395.459 C 1024.377 398.506 1021.610 401.000 1021.065 401.000 C 1020.520 401.000 1017.920 400.159 1015.287 399.130 C 973.820 382.934 917.266 397.406 871.042 436.042 C 864.499 441.511 862.079 442.986 860.356 442.553 C 856.976 441.705 851.912 452.493 851.233 461.991 C 850.957 465.846 850.955 469.000 851.228 469.000 C 851.501 469.000 855.049 467.622 859.112 465.937 C 868.326 462.117 880.081 459.327 890.500 458.489 C 912.471 456.720 919.810 454.775 947.097 443.487 C 965.574 435.844 997.394 425.000 1001.345 425.000 C 1002.585 425.000 1004.140 425.540 1004.800 426.200 C 1006.366 427.766 1006.338 431.478 1004.750 432.782 C 1004.063 433.347 994.725 436.715 984.000 440.267 C 973.275 443.819 956.850 449.897 947.500 453.775 C 922.081 464.317 920.244 464.773 885.758 469.106 C 866.459 471.531 847.576 480.703 833.480 494.500 C 817.447 510.193 809.502 526.067 806.990 547.433 C 805.610 559.171 803.071 567.909 798.253 577.500 C 793.671 586.621 791.053 590.360 779.011 604.987 C 766.874 619.728 764.513 623.662 762.950 631.744 C 761.847 637.448 761.993 653.326 763.159 654.493 C 763.429 654.762 766.736 653.430 770.509 651.531 C 778.917 647.301 791.915 644.147 804.233 643.347 C 814.415 642.687 833.554 644.385 835.664 646.136 C 836.399 646.746 837.000 648.554 837.000 650.155 C 837.000 654.066 834.551 654.835 825.654 653.717 C 816.325 652.545 796.217 653.489 788.088 655.481 C 774.130 658.901 761.175 667.819 754.062 678.903 C 749.842 685.480 745.476 697.815 743.942 707.500 L 742.674 715.500 734.427 724.000 C 729.891 728.675 724.334 735.390 722.079 738.922 C 717.458 746.158 713.581 757.488 712.588 766.659 C 711.031 781.042 716.111 801.285 726.455 821.910 C 731.011 830.996 731.848 833.415 730.990 835.018 C 730.112 836.659 730.912 838.434 735.825 845.742 C 754.551 873.599 767.000 902.345 767.000 917.730 L 767.000 922.203 777.155 912.547 C 805.287 885.799 833.756 867.500 861.104 858.589 C 866.936 856.688 879.536 853.492 889.104 851.485 C 918.023 845.420 943.048 836.442 975.500 820.492 C 1025.590 795.873 1062.085 768.431 1080.639 741.434 L 1085.895 733.786 1080.773 727.643 C 1071.377 716.375 1066.084 702.062 1063.892 682.000 C 1062.556 669.767 1063.232 648.630 1065.030 646.464 C 1066.538 644.647 1070.388 644.558 1071.840 646.307 C 1072.509 647.114 1073.079 655.433 1073.328 668.057 C 1073.766 690.232 1075.123 698.043 1080.520 709.452 C 1084.103 717.024 1090.540 725.000 1093.070 725.000 C 1094.285 725.000 1095.773 726.216 1096.797 728.045 C 1098.934 731.866 1109.378 737.180 1120.500 740.106 C 1126.720 741.742 1132.669 742.327 1147.236 742.736 C 1167.112 743.294 1168.474 743.653 1167.827 748.170 C 1167.304 751.818 1163.516 752.969 1152.000 752.982 C 1131.470 753.006 1113.869 749.638 1100.967 743.217 L 1093.435 739.468 1089.264 745.984 C 1073.727 770.258 1040.588 797.034 996.731 820.751 L 981.963 828.737 988.231 829.433 C 1007.675 831.591 1031.875 844.559 1051.788 863.494 C 1057.287 868.722 1062.495 873.000 1063.363 873.000 C 1064.230 873.000 1067.230 876.395 1070.030 880.545 C 1094.410 916.674 1120.843 926.756 1147.042 909.918 C 1150.594 907.635 1153.681 905.601 1153.903 905.398 C 1154.124 905.194 1152.999 904.050 1151.403 902.854 C 1145.941 898.763 1136.000 887.897 1136.000 886.019 C 1136.000 883.682 1138.586 881.000 1140.839 881.000 C 1141.771 881.000 1145.915 884.305 1150.048 888.345 C 1167.322 905.232 1190.296 910.113 1209.744 901.027 C 1222.664 894.992 1228.994 887.952 1229.010 879.600 C 1229.022 873.343 1232.303 865.885 1237.653 859.958 C 1239.769 857.614 1246.900 851.090 1253.500 845.460 C 1267.142 833.823 1278.129 822.705 1282.871 815.739 C 1284.653 813.120 1288.813 805.245 1292.116 798.239 C 1300.630 780.175 1306.508 770.559 1313.693 762.943 L 1319.942 756.318 1316.875 753.409 C 1312.877 749.616 1301.365 734.195 1296.609 726.262 C 1293.435 720.966 1290.178 713.856 1287.710 706.829 C 1287.177 705.311 1286.692 705.289 1282.403 706.579 C 1279.806 707.361 1273.670 708.000 1268.767 708.000 C 1256.052 708.000 1246.974 704.832 1230.719 694.724 C 1225.102 691.232 1223.487 688.827 1224.937 686.118 C 1226.898 682.454 1229.042 682.813 1238.915 688.451 C 1254.920 697.593 1265.517 700.279 1276.545 697.992 C 1282.970 696.659 1291.080 692.933 1294.845 689.585 C 1303.274 682.091 1303.689 664.668 1296.479 621.006 C 1289.661 579.720 1288.667 566.537 1291.542 555.499 C 1293.345 548.580 1296.564 543.945 1301.093 541.752 C 1304.939 539.889 1307.980 540.713 1309.174 543.942 C 1309.878 545.843 1309.357 546.819 1306.002 549.886 C 1301.064 554.399 1300.000 557.908 1300.000 569.671 C 1300.000 580.466 1300.712 586.164 1306.230 619.500 C 1309.959 642.030 1310.374 646.278 1310.434 662.500 C 1310.489 677.600 1310.200 681.362 1308.636 685.852 C 1306.860 690.951 1300.248 699.181 1297.154 700.145 C 1296.115 700.468 1296.521 702.415 1298.930 708.661 C 1304.541 723.212 1325.282 751.676 1329.500 750.615 C 1330.600 750.339 1334.425 749.362 1338.000 748.445 C 1346.460 746.275 1365.530 747.073 1382.779 750.319 C 1396.138 752.833 1398.666 754.210 1397.614 758.400 C 1396.677 762.133 1393.757 762.418 1381.413 759.979 C 1375.411 758.794 1364.596 757.577 1357.380 757.275 C 1345.825 756.792 1343.439 756.981 1337.380 758.862 C 1323.214 763.259 1316.251 771.241 1303.237 798.000 C 1298.556 807.625 1292.949 818.121 1290.776 821.324 C 1285.447 829.179 1275.565 839.507 1264.039 849.269 C 1238.788 870.654 1235.652 875.979 1241.498 887.554 C 1244.022 892.550 1248.290 897.452 1257.904 906.398 C 1262.623 910.788 1263.106 911.620 1262.579 914.433 C 1262.028 917.369 1262.328 917.773 1267.245 920.704 C 1273.752 924.583 1279.915 926.658 1289.205 928.100 C 1308.386 931.076 1316.713 927.135 1344.120 902.108 C 1368.584 879.768 1384.050 871.050 1399.281 871.012 C 1402.640 871.004 1404.237 870.545 1404.649 869.472 C 1404.971 868.632 1406.105 867.479 1407.168 866.910 C 1412.240 864.195 1464.030 897.269 1484.699 916.422 L 1491.898 923.093 1493.001 918.796 C 1493.608 916.433 1495.478 909.452 1497.157 903.283 C 1499.959 892.988 1500.078 891.935 1498.605 890.462 C 1497.722 889.579 1497.000 888.496 1497.000 888.054 C 1497.000 887.612 1499.257 881.989 1502.017 875.559 C 1507.590 862.569 1512.777 846.156 1515.624 832.500 C 1518.255 819.879 1518.285 786.488 1515.677 773.590 C 1510.892 749.921 1500.306 725.775 1479.471 691.000 C 1452.531 646.036 1447.051 630.353 1451.419 610.718 C 1453.431 601.675 1456.165 597.574 1459.607 598.437 C 1461.315 598.866 1463.166 598.097 1466.440 595.597 C 1471.896 591.433 1479.549 588.441 1491.500 585.800 C 1503.338 583.185 1542.402 582.195 1563.595 583.974 C 1571.594 584.646 1578.269 585.039 1578.429 584.847 C 1579.116 584.028 1576.782 566.855 1575.016 559.737 C 1571.116 544.018 1562.663 531.400 1552.228 525.721 C 1539.913 519.018 1518.037 515.557 1478.500 514.056 C 1436.536 512.462 1419.910 511.092 1415.792 508.889 C 1413.456 507.638 1413.499 503.764 1415.872 501.615 C 1417.489 500.153 1418.617 500.058 1424.122 500.922 C 1427.630 501.473 1434.649 502.230 1439.721 502.603 L 1448.941 503.283 1448.104 500.363 C 1442.576 481.089 1420.485 466.680 1377.673 454.425 C 1363.105 450.255 1354.864 446.482 1338.104 436.310 C 1311.866 420.384 1300.255 415.827 1285.500 415.665 C 1274.906 415.548 1268.144 417.324 1259.629 422.459 C 1256.400 424.407 1252.963 426.000 1251.991 426.000 C 1251.020 426.000 1247.362 424.665 1243.862 423.034 C 1220.581 412.179 1184.344 412.395 1148.879 423.598 C 1144.484 424.986 1139.725 425.982 1138.302 425.811 C 1134.976 425.411 1133.606 422.008 1135.616 419.138 C 1137.160 416.933 1151.183 412.048 1162.177 409.885 L 1168.088 408.722 1165.794 406.267 C 1158.989 398.985 1136.137 386.597 1119.482 381.162 C 1101.504 375.295 1077.588 373.355 1062.000 376.499 M 995.810 544.289 C 995.992 545.801 995.071 548.446 993.577 550.705 C 992.178 552.818 990.085 558.136 988.924 562.523 C 987.048 569.617 986.718 574.761 985.941 609.000 C 985.052 648.170 984.124 662.428 981.420 678.500 C 979.057 692.539 974.489 708.986 969.975 719.704 C 967.706 725.092 964.960 731.975 963.873 735.000 C 962.787 738.025 961.133 741.185 960.199 742.023 C 959.264 742.861 955.940 747.361 952.810 752.023 C 941.286 769.193 923.491 786.510 903.536 799.975 C 896.082 805.006 892.448 806.048 890.200 803.800 C 887.418 801.018 888.868 798.163 895.250 793.860 C 919.690 777.379 937.180 759.550 950.330 737.713 C 953.503 732.443 953.838 731.107 954.468 721.239 C 955.324 707.813 953.734 691.765 950.405 680.241 C 943.302 655.650 930.882 640.008 898.324 614.648 C 889.977 608.147 882.879 602.128 882.551 601.273 C 881.736 599.148 884.621 595.000 886.915 595.000 C 889.850 595.000 919.430 618.422 930.564 629.563 C 950.781 649.790 961.704 672.298 963.662 697.758 C 964.011 702.311 964.486 705.847 964.716 705.617 C 965.656 704.678 969.944 687.478 971.403 678.798 C 974.390 661.023 975.122 650.274 976.021 611.000 C 976.660 583.059 977.361 569.372 978.417 564.227 C 981.393 549.719 988.198 539.037 993.277 540.900 C 994.636 541.399 995.620 542.716 995.810 544.289 "/></g>
<g fill="#F0C22EFE" stroke="#F0C22EFE">
<path d="M 788.136 410.080 C 739.740 413.158 702.915 427.481 688.167 448.962 L 684.417 454.424 660.959 454.540 C 640.710 454.640 636.306 454.947 628.770 456.780 C 614.593 460.229 600.788 465.213 576.949 475.485 C 555.319 484.806 548.164 487.374 515.500 497.540 C 488.962 505.800 473.851 515.022 461.184 530.689 C 453.769 539.860 445.503 555.911 440.218 571.397 C 436.381 582.643 434.374 585.356 431.317 583.428 C 427.689 581.140 427.478 579.401 429.904 571.800 C 431.798 565.867 435.595 555.945 439.739 546.102 C 440.839 543.489 423.900 545.270 413.096 548.903 C 389.691 556.773 366.321 572.369 336.629 599.936 C 328.579 607.410 319.002 614.843 306.873 623.031 C 297.037 629.671 285.691 637.757 281.661 640.999 C 270.391 650.066 261.412 661.403 255.934 673.486 C 253.265 679.372 249.000 692.969 249.000 695.592 C 249.000 696.318 252.354 695.727 258.341 693.947 C 275.204 688.934 280.000 689.056 280.000 694.500 C 280.000 697.746 278.142 698.875 269.332 700.983 C 236.227 708.902 210.787 726.632 199.006 749.993 C 193.252 761.405 191.335 770.798 189.564 796.261 L 189.024 804.022 193.762 801.625 C 206.466 795.198 226.682 792.346 241.386 794.907 C 265.651 799.132 279.790 808.859 295.027 831.807 C 298.791 837.475 302.013 842.497 302.186 842.966 C 302.358 843.435 307.815 843.962 314.311 844.136 L 326.122 844.454 331.501 834.180 C 346.255 806.001 366.188 789.067 392.164 782.643 C 401.342 780.374 419.321 778.785 428.000 779.476 C 443.569 780.716 456.628 782.189 460.240 783.114 C 465.132 784.367 466.503 788.364 463.011 791.192 C 461.752 792.212 459.996 792.841 459.111 792.590 C 453.350 790.957 436.007 789.566 421.500 789.573 C 407.440 789.580 403.013 789.954 395.903 791.736 C 376.221 796.668 361.720 806.507 349.330 823.338 C 344.354 830.097 336.000 844.991 336.000 847.103 C 336.000 847.873 338.013 849.571 340.473 850.876 C 342.933 852.181 347.124 855.555 349.788 858.374 C 358.670 867.776 363.637 878.478 369.968 901.856 C 379.987 938.850 385.548 948.090 404.988 960.046 C 422.495 970.814 431.975 981.522 436.139 995.233 C 439.250 1005.474 438.464 1018.449 434.046 1029.802 C 429.961 1040.296 427.334 1043.552 423.687 1042.636 C 419.940 1041.696 419.340 1038.214 422.019 1032.963 C 435.305 1006.920 428.161 985.579 400.500 968.683 C 378.560 955.281 370.944 943.202 361.071 906.145 C 355.597 885.600 351.413 875.525 345.032 867.525 C 340.854 862.288 333.310 857.000 330.015 857.000 C 328.567 857.000 326.509 856.339 325.441 855.532 C 322.767 853.509 305.245 853.528 295.208 855.563 C 290.969 856.423 281.484 859.123 274.132 861.563 C 266.779 864.004 260.007 866.000 259.082 866.000 C 254.813 866.000 253.507 860.009 257.250 857.595 C 259.911 855.878 281.856 848.476 287.261 847.472 C 289.330 847.088 291.283 846.351 291.603 845.834 C 292.594 844.230 281.852 828.875 274.500 821.388 C 262.629 809.299 247.526 803.714 227.000 803.824 C 214.868 803.889 207.567 805.533 197.430 810.481 C 187.816 815.173 182.175 820.420 173.311 832.913 C 159.894 851.824 157.000 860.313 157.000 880.753 C 157.000 901.429 160.358 914.167 173.318 942.664 C 181.135 959.849 184.375 969.971 188.471 990.000 C 195.065 1022.246 199.937 1036.552 208.325 1048.307 C 216.439 1059.678 226.211 1065.102 239.883 1065.823 L 248.266 1066.265 247.642 1062.882 C 246.119 1054.630 245.788 1034.753 246.988 1023.614 C 248.110 1013.198 248.511 1011.712 250.559 1010.370 C 252.278 1009.243 253.363 1009.124 254.815 1009.901 C 257.693 1011.441 258.082 1013.377 257.008 1020.802 C 256.476 1024.486 256.031 1033.841 256.020 1041.590 C 255.977 1071.732 263.635 1085.277 287.393 1097.087 C 297.045 1101.885 298.208 1102.221 305.112 1102.201 C 309.175 1102.190 317.900 1101.417 324.500 1100.485 C 344.198 1097.700 353.239 1099.540 365.868 1108.902 C 384.378 1122.624 396.926 1123.097 436.786 1111.576 C 445.876 1108.949 453.122 1107.637 464.638 1106.534 C 488.541 1104.243 499.582 1100.767 518.130 1089.691 C 532.884 1080.880 532.349 1081.820 524.668 1078.225 C 516.390 1074.351 509.172 1067.678 505.212 1060.237 C 503.533 1057.082 500.525 1048.924 498.528 1042.109 C 493.928 1026.413 492.191 1023.053 484.381 1014.748 C 480.889 1011.035 476.906 1005.774 475.529 1003.057 C 468.834 989.846 466.569 971.257 467.540 937.500 L 468.201 914.500 463.351 911.501 C 441.757 898.151 422.624 859.378 420.310 824.282 C 419.646 814.202 420.409 812.000 424.566 812.000 C 428.162 812.000 430.000 815.589 430.000 822.612 C 430.000 826.004 430.707 832.508 431.572 837.066 C 437.452 868.061 454.284 896.422 472.250 905.606 C 474.863 906.941 477.068 908.589 477.151 909.267 C 477.234 909.945 477.356 925.800 477.423 944.500 C 477.536 976.133 477.695 979.034 479.710 986.169 C 482.730 996.859 485.307 1001.476 492.549 1009.178 C 499.880 1016.974 503.449 1023.999 507.954 1039.500 C 513.807 1059.640 519.233 1066.492 532.881 1070.976 C 536.390 1072.129 539.343 1072.943 539.444 1072.786 C 539.544 1072.629 540.398 1069.125 541.342 1065.000 C 543.643 1054.942 551.309 1039.311 558.800 1029.401 C 569.939 1014.664 588.636 998.762 605.000 990.106 C 607.751 988.651 611.039 985.614 613.458 982.294 C 619.075 974.586 630.734 962.991 639.236 956.658 C 667.002 935.974 699.431 926.653 743.145 926.790 C 762.502 926.851 762.822 926.818 764.994 924.506 C 767.257 922.098 767.338 918.572 765.397 907.044 C 763.378 895.053 750.305 867.679 737.339 848.291 C 731.125 839.000 729.319 836.945 727.733 837.360 C 724.923 838.095 721.789 834.526 717.158 825.313 C 695.057 781.357 697.914 747.545 726.195 718.369 C 733.056 711.290 733.121 711.172 734.927 702.356 C 737.956 687.571 744.581 673.370 752.178 665.377 C 754.934 662.477 755.072 661.979 754.114 658.377 C 752.169 651.065 751.728 641.288 752.962 632.843 C 754.870 619.781 756.054 617.791 777.858 591.000 C 789.401 576.818 794.906 564.104 797.441 545.775 C 799.207 533.005 800.758 527.058 804.570 518.437 C 812.138 501.326 828.645 482.810 844.707 473.417 L 851.000 469.736 851.000 463.494 C 851.000 456.575 852.823 450.400 856.521 444.798 C 857.943 442.644 858.554 440.842 857.982 440.489 C 857.442 440.155 857.000 438.828 857.000 437.540 C 857.000 435.238 861.582 430.761 872.942 421.967 L 877.384 418.528 868.068 416.310 C 854.130 412.992 839.441 411.038 820.500 409.984 C 811.150 409.464 802.825 409.096 802.000 409.166 C 801.175 409.236 794.936 409.647 788.136 410.080 M 546.007 579.144 C 555.510 583.803 557.491 585.290 567.000 594.894 C 579.746 607.769 587.282 620.002 594.251 639.130 C 594.790 640.608 595.744 640.542 604.498 638.426 C 609.808 637.142 621.655 634.926 630.826 633.500 C 655.392 629.681 666.226 627.244 678.500 622.778 C 692.823 617.566 695.479 617.158 696.967 619.939 C 698.824 623.407 697.304 625.590 691.094 628.377 C 677.411 634.518 664.402 637.821 635.322 642.538 C 611.334 646.429 598.806 649.242 595.336 651.515 C 594.090 652.332 592.330 653.000 591.425 653.000 C 588.221 653.000 578.074 659.273 572.544 664.672 C 560.778 676.159 551.529 690.869 548.406 703.062 C 543.816 720.978 552.721 738.974 575.655 758.130 C 580.245 761.963 584.000 765.617 584.000 766.250 C 584.000 766.883 581.319 771.473 578.042 776.450 C 563.625 798.350 558.669 819.553 562.350 843.573 C 563.906 853.722 569.462 873.000 570.832 873.000 C 571.237 873.000 574.254 872.056 577.535 870.901 C 587.239 867.487 600.184 866.421 614.842 867.828 C 621.804 868.496 628.679 869.299 630.119 869.613 C 632.653 870.164 632.780 869.965 633.987 863.568 C 635.574 855.159 640.719 844.382 647.264 835.757 C 652.535 828.811 654.585 827.416 657.949 828.484 C 660.990 829.449 661.530 832.839 659.125 835.870 C 648.148 849.707 643.000 861.252 643.000 872.034 C 643.000 879.166 641.237 881.507 636.586 880.548 C 617.640 876.638 593.118 876.136 582.349 879.439 C 574.862 881.735 567.948 886.745 565.013 892.000 C 561.438 898.401 561.565 909.662 565.322 919.338 C 568.095 926.481 567.877 929.066 564.387 930.405 C 559.079 932.442 552.926 918.309 552.895 904.009 C 552.877 896.007 555.601 886.406 558.592 883.923 C 562.157 880.965 562.149 879.338 558.519 868.488 C 553.193 852.571 551.698 842.169 552.268 825.000 C 552.659 813.189 553.236 808.872 555.379 801.718 C 558.155 792.452 564.273 779.397 569.214 772.199 L 572.166 767.898 567.333 763.752 C 554.726 752.937 545.117 740.412 540.874 729.264 L 538.500 723.028 533.500 723.764 C 530.750 724.169 517.925 724.466 505.000 724.424 C 485.818 724.363 479.203 723.956 469.000 722.212 C 451.453 719.213 436.745 715.333 435.250 713.310 C 433.608 711.087 433.659 710.642 435.871 707.911 L 437.741 705.601 449.621 708.337 C 477.107 714.666 503.216 717.099 522.941 715.168 C 529.475 714.529 535.536 713.731 536.411 713.396 C 537.557 712.956 538.000 711.451 538.000 707.998 C 538.000 690.018 559.488 658.498 579.084 647.736 C 582.325 645.956 584.979 643.825 584.983 643.000 C 584.997 640.083 576.340 622.395 571.112 614.656 C 561.840 600.933 548.774 589.661 537.184 585.388 C 531.728 583.376 529.000 581.305 529.000 579.174 C 529.000 577.107 531.950 574.000 533.912 574.000 C 534.793 574.000 540.236 576.315 546.007 579.144 M 470.000 630.321 C 475.775 631.703 483.870 633.902 487.990 635.207 C 494.248 637.190 495.638 638.028 496.439 640.306 C 497.188 642.436 497.029 643.399 495.713 644.716 C 493.810 646.618 493.388 646.553 473.000 641.204 C 457.252 637.073 441.663 635.607 428.673 637.036 C 391.399 641.138 364.370 662.866 326.487 719.182 C 322.165 725.607 317.842 731.070 316.879 731.321 C 314.486 731.947 311.000 729.324 311.000 726.898 C 311.000 725.804 313.321 721.443 316.157 717.205 C 354.281 660.241 381.237 636.706 417.677 628.567 C 428.565 626.135 456.409 627.068 470.000 630.321 "/></g>
<g fill="#E692BAFE" stroke="#E692BAFE">
<path d="M 1507.887 583.446 C 1507.657 583.677 1505.225 584.101 1502.484 584.389 C 1484.888 586.239 1472.653 590.214 1465.164 596.515 C 1462.636 598.643 1462.261 599.446 1463.141 600.855 C 1463.947 602.146 1463.784 603.839 1462.496 607.542 C 1459.658 615.701 1459.460 624.425 1461.893 634.055 C 1464.663 645.019 1470.866 657.461 1487.044 684.500 C 1507.646 718.936 1518.263 742.262 1524.046 765.795 L 1525.101 770.090 1530.402 759.288 C 1540.183 739.359 1554.317 720.579 1573.113 702.539 C 1584.946 691.181 1587.116 689.890 1589.996 692.496 C 1591.098 693.494 1592.000 695.133 1592.000 696.140 C 1592.000 697.168 1585.691 704.222 1577.605 712.235 C 1561.438 728.256 1549.827 743.220 1542.102 757.994 C 1532.064 777.187 1529.365 786.973 1528.033 809.000 C 1526.537 833.745 1521.655 854.496 1511.799 878.000 C 1506.713 890.130 1505.489 892.000 1502.635 892.000 C 1500.039 892.000 1500.007 892.081 1495.027 911.063 C 1493.393 917.292 1492.185 922.519 1492.344 922.678 C 1492.503 922.836 1496.142 921.615 1500.430 919.964 C 1525.485 910.316 1552.646 904.864 1575.500 904.894 C 1598.290 904.925 1613.440 909.376 1626.857 919.982 C 1631.533 923.677 1635.986 929.168 1635.996 931.250 C 1636.001 932.290 1632.195 936.000 1631.122 936.000 C 1630.640 936.000 1626.927 933.221 1622.872 929.824 C 1609.925 918.979 1597.552 914.998 1576.803 915.003 C 1560.253 915.007 1549.367 916.448 1531.500 921.000 C 1516.648 924.784 1497.471 931.129 1495.783 932.817 C 1494.972 933.628 1478.762 994.198 1479.271 994.520 C 1479.397 994.600 1482.425 995.725 1486.000 997.021 C 1526.236 1011.607 1561.830 1036.946 1579.520 1063.596 C 1583.403 1069.445 1590.000 1082.745 1590.000 1084.722 C 1590.000 1086.375 1589.526 1086.460 1599.170 1083.087 C 1627.538 1073.164 1645.117 1069.128 1663.500 1068.314 C 1674.908 1067.809 1677.476 1068.006 1684.470 1069.926 C 1697.005 1073.368 1703.383 1077.457 1711.132 1087.018 C 1718.469 1096.072 1723.468 1110.073 1726.013 1128.699 L 1727.235 1137.639 1735.289 1143.569 C 1757.143 1159.662 1769.374 1187.607 1767.788 1217.822 C 1767.422 1224.798 1766.983 1226.595 1765.320 1227.942 C 1763.575 1229.355 1763.205 1231.222 1762.623 1241.540 C 1762.252 1248.118 1761.676 1256.538 1761.345 1260.250 C 1760.617 1268.397 1760.808 1268.462 1770.797 1263.465 C 1793.015 1252.350 1806.174 1221.254 1816.485 1155.500 C 1819.392 1136.956 1822.894 1123.888 1828.273 1111.500 C 1830.183 1107.100 1833.907 1098.550 1836.549 1092.500 C 1840.522 1083.400 1841.426 1080.205 1841.783 1074.000 C 1842.192 1066.902 1841.944 1065.792 1837.150 1053.276 C 1824.205 1019.473 1819.353 999.917 1816.995 972.036 C 1814.463 942.110 1810.706 931.446 1798.405 919.282 C 1794.390 915.313 1789.957 911.776 1788.553 911.424 C 1787.149 911.072 1786.000 910.395 1786.000 909.920 C 1786.000 907.642 1760.491 897.352 1744.000 892.979 C 1734.363 890.423 1731.772 888.704 1732.203 885.153 C 1732.716 880.923 1735.107 880.328 1743.224 882.409 C 1753.754 885.110 1769.644 890.475 1777.347 893.931 C 1783.922 896.881 1784.013 896.893 1783.571 894.713 C 1781.084 882.422 1778.963 876.200 1773.863 866.233 C 1770.657 859.966 1767.543 853.018 1766.944 850.792 C 1766.345 848.567 1765.466 835.891 1764.990 822.623 C 1764.281 802.829 1763.743 797.154 1761.992 791.000 C 1757.694 775.899 1749.435 766.010 1734.817 758.460 C 1726.520 754.174 1726.004 753.715 1724.987 749.718 C 1715.766 713.460 1699.822 692.628 1675.000 684.404 C 1666.901 681.721 1651.685 681.897 1642.358 684.783 C 1638.430 685.998 1632.890 688.070 1630.047 689.387 C 1624.441 691.984 1621.512 691.826 1619.913 688.837 C 1617.668 684.643 1619.784 682.654 1631.404 678.038 C 1646.672 671.973 1663.868 670.629 1676.638 674.503 C 1679.312 675.315 1681.677 675.983 1681.892 675.989 C 1682.108 675.995 1682.003 673.308 1681.660 670.017 C 1680.256 656.590 1672.124 639.357 1660.842 625.897 C 1655.357 619.354 1642.595 608.976 1634.622 604.576 C 1620.807 596.951 1605.055 593.351 1590.620 594.520 C 1581.049 595.295 1579.000 594.232 1579.000 588.491 C 1579.000 585.939 1578.576 585.132 1577.250 585.156 C 1576.288 585.174 1572.575 584.881 1569.000 584.507 C 1561.582 583.729 1508.525 582.808 1507.887 583.446 M 1656.266 889.074 C 1667.782 894.940 1675.083 900.103 1684.264 908.874 C 1707.964 931.518 1720.672 959.896 1722.654 994.608 L 1723.303 1005.966 1726.401 1006.409 C 1728.106 1006.652 1733.270 1007.367 1737.878 1007.997 C 1763.747 1011.534 1788.649 1026.098 1796.194 1042.104 C 1801.922 1054.256 1802.250 1056.452 1802.897 1087.046 C 1803.422 1111.892 1803.727 1115.937 1805.250 1118.260 C 1808.593 1123.359 1806.748 1128.533 1801.839 1127.827 C 1798.839 1127.395 1795.408 1122.131 1794.075 1115.914 C 1793.484 1113.157 1792.993 1100.461 1792.985 1087.701 C 1792.974 1070.770 1792.571 1062.806 1791.492 1058.231 C 1787.273 1040.334 1776.403 1029.988 1753.500 1022.070 C 1736.343 1016.138 1718.442 1015.035 1695.907 1018.519 C 1690.183 1019.404 1681.450 1020.744 1676.500 1021.496 C 1664.191 1023.366 1641.752 1022.731 1632.502 1020.250 C 1626.578 1018.662 1625.357 1017.958 1624.551 1015.665 C 1623.774 1013.455 1623.983 1012.573 1625.688 1010.867 C 1627.768 1008.787 1627.810 1008.786 1634.639 1010.608 C 1645.379 1013.475 1667.064 1013.120 1688.500 1009.729 C 1697.850 1008.250 1707.075 1006.918 1709.000 1006.770 L 1712.500 1006.500 1712.369 995.500 C 1712.034 967.319 1701.260 940.939 1681.626 920.229 C 1671.767 909.828 1663.407 903.728 1650.250 897.333 C 1639.420 892.070 1638.505 891.312 1638.977 888.000 C 1639.729 882.712 1644.339 882.999 1656.266 889.074 "/></g>
<g fill="#B260E6FE" stroke="#B260E6FE">
<path d="M 1366.304 1238.044 C 1300.102 1255.965 1241.609 1281.375 1208.000 1306.813 C 1203.875 1309.935 1196.719 1316.317 1192.098 1320.995 L 1183.696 1329.500 1193.598 1325.244 C 1203.974 1320.784 1206.815 1320.215 1208.800 1322.200 C 1210.361 1323.761 1210.336 1327.248 1208.750 1328.912 C 1207.733 1329.980 1207.874 1330.115 1209.500 1329.637 C 1217.668 1327.234 1257.297 1322.065 1284.500 1319.854 C 1303.917 1318.275 1362.819 1318.278 1384.000 1319.858 C 1481.782 1327.153 1557.990 1350.263 1608.000 1387.785 C 1625.132 1400.639 1643.198 1420.881 1651.841 1436.909 L 1655.837 1444.319 1661.461 1435.691 C 1674.684 1415.405 1681.458 1393.486 1682.697 1366.976 L 1683.282 1354.452 1679.149 1351.717 C 1626.836 1317.098 1502.380 1293.945 1381.500 1296.343 C 1339.798 1297.171 1312.528 1299.488 1282.500 1304.755 C 1274.250 1306.202 1265.715 1307.412 1263.533 1307.443 C 1260.096 1307.492 1259.437 1307.137 1258.601 1304.780 C 1257.065 1300.455 1259.609 1298.605 1269.751 1296.671 C 1374.866 1276.625 1533.514 1285.911 1628.880 1317.692 C 1645.701 1323.298 1663.923 1331.049 1674.401 1337.055 L 1682.487 1341.690 1681.725 1333.595 C 1681.306 1329.143 1680.256 1321.595 1679.391 1316.823 L 1677.819 1308.145 1663.159 1300.947 C 1601.681 1270.759 1544.871 1252.941 1483.000 1244.443 C 1474.561 1243.284 1462.014 1242.630 1444.378 1242.431 C 1416.101 1242.111 1408.457 1241.046 1394.891 1235.534 C 1391.461 1234.140 1387.720 1233.027 1386.578 1233.059 C 1385.435 1233.092 1376.312 1235.335 1366.304 1238.044 "/></g>
<g fill="#B260E6FE" stroke="#B260E6FE">
<path d="M 1233.500 1353.078 C 1200.516 1355.853 1154.678 1364.994 1150.000 1369.730 C 1148.661 1371.085 1148.823 1371.172 1151.500 1370.542 C 1172.252 1365.656 1213.420 1363.711 1238.828 1366.417 C 1307.006 1373.678 1368.209 1400.701 1427.892 1449.892 C 1451.460 1469.317 1495.981 1516.107 1510.519 1536.729 C 1512.159 1539.054 1513.773 1540.967 1514.106 1540.979 C 1514.440 1540.990 1516.690 1539.495 1519.106 1537.655 C 1526.920 1531.706 1539.095 1524.509 1562.538 1511.981 C 1575.167 1505.232 1586.310 1499.154 1587.301 1498.475 C 1588.967 1497.332 1588.716 1496.728 1583.923 1490.370 C 1565.733 1466.237 1539.342 1440.434 1515.742 1423.707 C 1462.670 1386.092 1401.885 1363.862 1327.500 1354.866 C 1308.033 1352.511 1252.737 1351.460 1233.500 1353.078 "/></g>
<g fill="#B260E6FE" stroke="#B260E6FE">
<path d="M 1294.000 1329.597 C 1291.525 1329.797 1283.200 1330.446 1275.500 1331.040 C 1235.531 1334.123 1176.971 1345.207 1168.992 1351.200 L 1165.929 1353.500 1169.214 1352.753 C 1234.755 1337.844 1309.214 1337.968 1378.307 1353.102 C 1466.631 1372.448 1542.339 1418.474 1589.838 1481.699 C 1594.052 1487.309 1597.877 1491.921 1598.337 1491.949 C 1599.788 1492.037 1621.150 1477.450 1629.500 1470.670 C 1633.900 1467.097 1639.962 1461.658 1642.971 1458.582 L 1648.441 1452.991 1644.322 1444.745 C 1614.134 1384.319 1527.442 1344.024 1400.500 1331.414 C 1385.557 1329.930 1306.601 1328.583 1294.000 1329.597 "/></g>
<g fill="#B260E6FE" stroke="#B260E6FE">
<path d="M 1137.000 1393.418 C 1137.000 1395.480 1144.799 1416.598 1149.055 1426.058 C 1175.837 1485.594 1234.812 1553.702 1293.000 1592.293 C 1303.983 1599.577 1324.031 1610.000 1327.059 1610.000 C 1328.028 1610.000 1333.024 1608.901 1338.161 1607.558 C 1343.297 1606.214 1350.313 1604.581 1353.750 1603.927 C 1357.188 1603.274 1360.000 1602.600 1360.000 1602.429 C 1360.000 1600.648 1353.602 1585.216 1349.300 1576.622 C 1314.894 1507.888 1227.919 1429.333 1152.139 1398.548 C 1140.198 1393.698 1137.000 1392.614 1137.000 1393.418 "/></g>
<g fill="#B260E6FE" stroke="#B260E6FE">
<path d="M 1191.500 1375.660 C 1178.042 1376.749 1165.000 1378.328 1165.001 1378.869 C 1165.002 1379.216 1169.839 1380.289 1175.751 1381.254 C 1226.245 1389.495 1282.701 1414.278 1332.500 1450.064 C 1350.331 1462.877 1369.315 1479.244 1388.060 1497.963 C 1412.713 1522.583 1432.862 1546.686 1452.679 1575.264 L 1460.143 1586.029 1463.174 1584.264 C 1470.934 1579.747 1506.000 1550.062 1506.000 1548.010 C 1506.000 1546.595 1487.009 1523.299 1473.792 1508.500 C 1402.117 1428.244 1319.205 1383.079 1230.605 1376.026 C 1218.604 1375.071 1200.834 1374.905 1191.500 1375.660 "/></g>
<g fill="#B260E6FE" stroke="#B260E6FE">
<path d="M 1161.500 1391.164 C 1170.919 1395.269 1192.604 1406.760 1203.353 1413.341 C 1278.218 1459.177 1349.050 1537.117 1368.128 1594.653 L 1370.500 1601.807 1380.500 1603.153 C 1395.437 1605.165 1415.727 1604.725 1425.175 1602.184 C 1433.315 1599.995 1446.508 1594.811 1449.492 1592.630 C 1451.156 1591.413 1450.932 1590.809 1446.249 1583.869 C 1428.143 1557.037 1407.690 1532.500 1382.095 1506.905 C 1348.745 1473.555 1321.106 1452.191 1284.112 1431.170 C 1246.714 1409.919 1195.750 1392.463 1162.500 1389.516 L 1156.500 1388.984 1161.500 1391.164 "/></g>
<g fill="#000000FE" stroke="#000000FE">
<path d="M 1406.046 868.445 C 1403.152 871.932 1405.182 874.008 1419.500 882.203 C 1444.339 896.419 1472.438 916.405 1482.737 927.181 L 1485.974 930.568 1478.044 960.893 C 1473.683 977.572 1469.945 991.388 1469.738 991.595 C 1469.530 991.803 1466.242 991.113 1462.430 990.062 C 1431.010 981.397 1404.707 980.630 1348.500 986.737 C 1317.541 990.100 1277.526 990.541 1265.647 987.649 C 1256.793 985.494 1247.221 981.642 1239.940 977.304 C 1235.117 974.432 1233.797 974.039 1232.072 974.961 C 1229.501 976.338 1229.317 980.738 1231.750 982.667 C 1238.800 988.255 1258.895 995.872 1270.863 997.492 L 1276.226 998.219 1275.651 1001.763 C 1274.923 1006.249 1269.218 1018.315 1264.299 1025.772 C 1259.907 1032.431 1245.613 1047.611 1240.215 1051.349 C 1236.713 1053.774 1236.127 1053.868 1230.000 1052.981 C 1210.855 1050.210 1189.033 1054.060 1160.500 1065.243 C 1143.986 1071.715 1098.213 1094.733 1096.871 1097.240 C 1096.125 1098.636 1096.277 1099.774 1097.452 1101.567 C 1098.329 1102.905 1099.487 1104.000 1100.027 1104.000 C 1100.566 1104.000 1110.118 1099.302 1121.254 1093.560 C 1166.393 1070.283 1192.166 1061.667 1217.000 1061.553 C 1233.657 1061.476 1249.640 1065.633 1263.871 1073.743 C 1267.980 1076.084 1272.075 1078.000 1272.971 1078.000 C 1275.264 1078.000 1277.000 1075.995 1277.000 1073.345 C 1277.000 1070.647 1267.810 1064.822 1255.907 1059.974 L 1248.329 1056.888 1255.762 1049.694 C 1268.971 1036.910 1278.767 1021.703 1283.587 1006.500 L 1285.807 999.500 1304.154 998.857 C 1314.244 998.504 1333.975 997.032 1348.000 995.588 C 1385.972 991.676 1406.638 990.652 1421.688 991.939 C 1468.118 995.906 1518.523 1016.719 1550.725 1045.220 C 1565.731 1058.501 1575.587 1072.372 1581.099 1087.966 C 1582.551 1092.073 1584.451 1095.882 1585.323 1096.432 C 1586.495 1097.171 1592.062 1095.684 1606.704 1090.719 C 1617.592 1087.028 1631.194 1082.889 1636.930 1081.523 C 1690.158 1068.846 1712.451 1084.250 1717.508 1137.196 L 1718.148 1143.892 1723.824 1147.085 C 1732.094 1151.736 1744.805 1164.968 1749.198 1173.500 C 1755.728 1186.180 1757.215 1192.620 1757.746 1210.500 C 1758.008 1219.300 1758.677 1227.063 1759.233 1227.750 C 1760.654 1229.505 1763.553 1229.305 1765.543 1227.314 C 1767.025 1225.832 1767.171 1223.738 1766.748 1210.064 C 1766.344 1197.039 1765.834 1193.063 1763.621 1185.693 C 1757.816 1166.366 1747.411 1151.933 1731.818 1141.580 L 1726.266 1137.894 1725.586 1130.391 C 1723.454 1106.859 1713.991 1086.742 1700.776 1077.649 C 1681.882 1064.649 1653.144 1065.528 1609.073 1080.454 C 1600.508 1083.355 1592.759 1086.045 1591.853 1086.432 C 1590.548 1086.989 1589.870 1086.125 1588.590 1082.271 C 1583.503 1066.956 1568.158 1047.399 1549.500 1032.451 C 1534.638 1020.545 1509.314 1006.383 1489.550 998.925 C 1484.051 996.850 1479.389 994.667 1479.192 994.075 C 1478.778 992.835 1493.955 933.904 1494.995 932.708 C 1497.319 930.036 1529.364 920.259 1547.000 916.841 C 1562.299 913.876 1588.149 913.596 1598.000 916.290 C 1608.390 919.131 1616.605 923.482 1622.878 929.465 C 1628.643 934.964 1631.501 936.099 1633.800 933.800 C 1636.330 931.270 1635.025 928.238 1629.004 922.664 C 1610.269 905.319 1579.183 900.875 1537.694 909.612 C 1526.994 911.865 1502.980 919.113 1495.528 922.339 C 1492.606 923.603 1492.376 923.471 1482.028 914.560 C 1464.842 899.763 1446.220 886.935 1422.664 873.667 C 1410.374 866.744 1408.061 866.017 1406.046 868.445 "/></g>
<g fill="#B260E6FE" stroke="#B260E6FE">
<path d="M 1131.000 1417.373 C 1131.000 1448.275 1140.626 1486.157 1156.952 1519.500 C 1169.413 1544.951 1180.684 1560.911 1198.970 1579.000 C 1216.282 1596.125 1234.135 1607.991 1254.664 1616.018 C 1269.891 1621.971 1273.534 1622.611 1283.826 1621.135 C 1291.385 1620.052 1305.585 1616.942 1309.965 1615.410 C 1310.863 1615.096 1308.595 1613.359 1304.103 1610.922 C 1263.098 1588.672 1207.430 1536.273 1173.619 1488.101 C 1157.324 1464.886 1143.205 1439.675 1135.479 1420.000 C 1133.427 1414.775 1131.580 1410.313 1131.374 1410.083 C 1131.168 1409.854 1131.000 1413.134 1131.000 1417.373 "/></g>
<g fill="#000000FE" stroke="#000000FE">
<path d="M 1298.062 544.563 C 1292.262 549.803 1290.598 555.666 1290.703 570.500 C 1290.786 582.172 1291.460 587.315 1298.665 631.250 C 1300.710 643.725 1301.349 651.217 1301.415 663.500 C 1301.534 685.852 1300.360 688.216 1285.500 695.542 C 1280.127 698.191 1278.507 698.500 1270.000 698.500 C 1258.273 698.500 1252.203 696.658 1239.821 689.341 C 1234.849 686.403 1230.021 684.000 1229.091 684.000 C 1226.741 684.000 1225.000 685.980 1225.000 688.654 C 1225.000 690.435 1226.974 692.086 1234.408 696.522 C 1251.613 706.790 1267.093 710.147 1280.899 706.606 C 1284.419 705.703 1287.361 705.085 1287.437 705.232 C 1287.513 705.380 1288.638 708.200 1289.936 711.500 C 1294.657 723.502 1304.188 738.476 1315.066 750.983 L 1319.983 756.636 1314.937 761.872 C 1307.805 769.271 1302.363 778.104 1292.624 798.095 C 1282.610 818.647 1277.375 825.413 1259.962 840.300 C 1235.085 861.570 1230.040 867.980 1229.578 878.899 C 1229.288 885.767 1228.474 887.347 1222.209 893.208 C 1213.475 901.378 1201.475 906.000 1189.000 906.000 C 1181.194 906.000 1171.568 903.717 1167.790 900.970 C 1166.300 899.887 1164.432 899.000 1163.640 899.000 C 1161.531 899.000 1150.363 890.343 1147.313 886.343 C 1143.873 881.834 1141.564 880.628 1139.000 882.000 C 1135.036 884.121 1136.442 888.010 1143.750 895.134 C 1147.463 898.753 1151.560 902.416 1152.855 903.275 L 1155.210 904.835 1150.855 908.011 C 1134.757 919.748 1119.444 921.454 1103.000 913.343 C 1093.855 908.832 1079.380 894.944 1070.503 882.163 C 1067.318 877.578 1064.137 873.606 1063.434 873.336 C 1061.310 872.521 1058.000 874.925 1057.996 877.285 C 1057.988 881.078 1068.973 896.046 1079.464 906.538 C 1094.366 921.441 1106.027 926.964 1122.645 926.988 C 1135.384 927.007 1147.339 922.392 1159.340 912.823 L 1163.179 909.762 1170.840 912.131 C 1180.867 915.232 1197.594 915.452 1206.000 912.592 C 1215.224 909.455 1222.432 905.372 1228.440 899.881 L 1234.170 894.644 1236.731 898.072 C 1238.140 899.957 1242.925 904.988 1247.364 909.250 C 1256.032 917.573 1259.827 919.059 1262.007 914.987 C 1263.427 912.333 1262.849 911.492 1253.826 903.090 C 1241.583 891.690 1236.592 882.476 1238.969 875.660 C 1241.101 869.543 1245.666 864.532 1261.497 850.928 C 1285.254 830.513 1290.005 824.495 1301.787 799.882 C 1310.507 781.668 1315.544 773.636 1322.155 767.404 C 1334.756 755.525 1348.093 753.711 1380.457 759.474 C 1394.910 762.047 1397.000 761.740 1397.000 757.042 C 1397.000 753.451 1395.380 752.856 1377.500 749.879 C 1359.996 746.964 1342.864 746.908 1334.249 749.738 L 1327.997 751.791 1323.344 746.646 C 1317.448 740.126 1309.416 729.242 1304.787 721.500 C 1301.221 715.534 1296.000 703.979 1296.000 702.051 C 1296.000 701.495 1298.433 698.669 1301.406 695.771 C 1307.822 689.515 1309.752 684.243 1310.657 670.500 C 1311.381 659.501 1310.089 646.900 1304.963 615.000 C 1302.798 601.525 1300.541 585.775 1299.947 580.000 C 1298.179 562.791 1300.269 552.464 1306.135 549.430 C 1310.843 546.996 1309.540 541.000 1304.303 541.000 C 1303.039 541.000 1300.231 542.603 1298.062 544.563 "/></g>
<g fill="#B260E6FE" stroke="#B260E6FE">
<path d="M 1310.424 1210.994 C 1305.982 1211.998 1294.957 1215.312 1285.924 1218.358 C 1276.891 1221.404 1255.550 1228.615 1238.500 1234.382 L 1207.500 1244.867 1201.500 1251.203 C 1186.344 1267.206 1170.673 1297.711 1164.484 1323.256 C 1161.479 1335.660 1161.323 1339.010 1163.750 1338.974 C 1164.826 1338.959 1167.233 1336.167 1170.000 1331.724 C 1175.513 1322.874 1193.543 1304.662 1204.541 1296.836 C 1233.658 1276.117 1269.020 1258.965 1315.096 1243.214 C 1330.649 1237.898 1362.722 1228.222 1373.347 1225.641 C 1375.070 1225.222 1346.286 1212.064 1340.356 1210.559 C 1332.375 1208.534 1320.547 1208.706 1310.424 1210.994 "/></g>
<g fill="#000000FE" stroke="#000000FE">
<path d="M 530.390 576.427 C 528.879 580.362 530.447 582.331 537.334 585.149 C 556.110 592.830 572.805 611.374 582.622 635.455 C 584.630 640.379 585.851 644.550 585.334 644.722 C 581.100 646.133 570.418 653.715 564.826 659.278 C 549.130 674.893 538.073 695.867 538.015 710.137 C 538.001 713.441 537.703 713.830 534.750 714.393 C 532.963 714.734 524.300 715.294 515.500 715.637 C 492.953 716.516 470.166 714.060 448.202 708.384 C 441.231 706.583 438.415 706.243 436.952 707.026 C 434.720 708.220 434.352 712.217 436.323 713.853 C 438.320 715.511 460.930 720.706 474.500 722.625 C 487.609 724.479 519.403 725.070 531.758 723.689 C 538.295 722.958 539.073 723.057 539.596 724.689 C 543.594 737.173 548.879 745.069 561.717 757.744 L 572.093 767.987 567.422 775.682 C 549.744 804.803 547.337 839.369 560.623 873.309 L 562.897 879.117 559.475 883.601 C 551.512 894.033 550.963 909.825 558.010 925.756 C 559.686 929.544 560.311 930.095 562.623 929.819 C 567.250 929.267 567.630 927.104 564.671 918.152 C 557.627 896.840 564.609 883.369 585.219 878.511 C 593.736 876.502 613.719 876.587 628.162 878.692 C 642.462 880.776 642.692 880.658 642.794 871.243 C 642.909 860.664 648.221 848.429 657.134 838.215 C 660.494 834.365 660.854 830.528 658.000 829.000 C 655.155 827.477 652.921 828.955 647.584 835.891 C 639.822 845.978 634.018 859.212 634.006 866.851 L 634.000 870.203 626.750 869.351 C 622.763 868.883 612.075 868.500 603.000 868.500 C 588.452 868.500 585.672 868.773 579.500 870.809 C 575.650 872.079 571.969 873.343 571.320 873.619 C 569.699 874.307 563.501 854.798 561.951 844.131 C 560.297 832.746 561.234 814.611 563.973 805.000 C 566.755 795.237 572.698 782.989 578.428 775.205 C 584.353 767.156 584.323 765.141 578.207 760.652 C 570.959 755.331 556.824 740.203 553.306 734.000 C 542.791 715.460 545.373 698.227 561.964 676.208 C 565.300 671.781 570.378 666.047 573.249 663.466 C 578.627 658.630 587.501 653.026 589.805 653.009 C 590.523 653.004 592.998 652.141 595.305 651.091 C 601.812 648.129 609.858 646.324 633.580 642.502 C 659.616 638.308 673.301 635.090 685.500 630.292 C 696.275 626.054 697.189 625.399 696.801 622.186 C 696.241 617.559 694.020 617.384 684.386 621.209 C 671.451 626.343 658.588 629.409 630.951 633.945 C 617.449 636.162 604.174 638.651 601.451 639.477 C 598.728 640.303 595.998 640.983 595.384 640.989 C 594.770 640.995 593.250 638.188 592.005 634.750 C 582.504 608.511 562.717 585.840 541.955 577.404 C 535.250 574.679 531.192 574.336 530.390 576.427 "/></g>
<g fill="#000000FE" stroke="#000000FE">
<path d="M 986.359 429.516 C 972.103 433.986 959.945 438.536 937.000 447.990 C 921.550 454.355 912.452 456.618 894.544 458.548 C 886.868 459.375 877.762 460.707 874.307 461.509 C 844.014 468.534 815.443 492.718 803.886 521.115 C 801.152 527.834 800.000 532.891 796.507 553.500 C 794.343 566.269 787.744 579.298 776.321 593.353 C 754.801 619.831 753.978 621.450 753.232 638.768 C 752.945 645.435 753.226 652.469 753.919 655.995 L 755.091 661.953 750.105 668.458 C 747.363 672.036 743.713 677.910 741.995 681.511 C 739.049 687.683 734.000 705.094 734.000 709.079 C 734.000 710.082 730.905 714.040 727.123 717.875 C 698.312 747.089 695.309 782.053 717.870 825.602 C 722.287 834.127 724.016 836.571 725.813 836.827 C 728.403 837.195 731.000 835.458 731.000 833.358 C 731.000 832.589 728.088 826.007 724.530 818.730 C 714.901 799.041 712.716 790.759 712.597 773.500 C 712.508 760.674 712.725 758.885 715.179 752.165 C 719.143 741.314 723.495 734.688 733.274 724.616 C 742.035 715.592 742.049 715.570 743.133 708.584 C 747.347 681.423 760.118 664.739 782.956 656.560 C 791.462 653.514 791.597 653.500 813.014 653.455 C 824.847 653.430 835.085 653.066 835.764 652.646 C 837.835 651.366 837.210 647.183 834.750 645.861 C 831.447 644.086 802.686 643.454 793.399 644.952 C 784.358 646.410 773.309 650.043 767.424 653.492 L 763.136 656.004 762.439 653.808 C 761.166 649.797 761.758 633.344 763.376 627.778 C 765.134 621.730 767.412 618.338 779.958 603.086 C 790.433 590.351 793.627 585.708 798.285 576.440 C 802.842 567.373 804.628 561.091 806.512 547.500 C 808.403 533.855 811.725 523.628 817.409 513.956 C 824.809 501.363 835.091 490.806 848.282 482.257 C 862.099 473.302 873.079 469.844 895.344 467.436 C 915.192 465.289 925.346 462.614 945.696 454.172 C 964.940 446.188 983.770 439.338 995.826 435.934 C 1005.243 433.275 1007.155 431.412 1004.548 427.433 C 1003.671 426.095 1002.402 425.018 1001.727 425.041 C 1001.052 425.064 994.137 427.077 986.359 429.516 "/></g>
<g fill="#B260E6FE" stroke="#B260E6FE">
<path d="M 1119.682 1443.500 C 1116.512 1460.821 1115.739 1471.850 1116.291 1491.869 C 1116.868 1512.780 1118.371 1522.297 1123.527 1537.694 C 1135.823 1574.414 1163.184 1600.316 1203.692 1613.586 C 1213.555 1616.817 1236.462 1622.023 1240.626 1621.981 C 1241.657 1621.970 1238.436 1619.804 1233.470 1617.167 C 1183.643 1590.713 1144.683 1536.597 1127.879 1470.500 C 1126.201 1463.900 1124.041 1453.100 1123.079 1446.500 L 1121.329 1434.500 1119.682 1443.500 "/></g>
<g fill="#000000FE" stroke="#000000FE">
<path d="M 986.155 545.275 C 978.590 556.271 977.143 566.593 975.990 617.828 C 974.943 664.368 973.094 680.498 966.291 702.454 L 964.446 708.407 963.206 697.258 C 960.081 669.147 949.566 648.216 928.406 627.984 C 920.301 620.234 896.095 600.550 890.000 596.752 C 886.687 594.687 883.000 596.019 883.000 599.281 C 883.000 602.107 884.586 603.598 902.331 617.451 C 932.631 641.104 945.731 658.770 952.219 684.726 C 954.081 692.173 954.419 696.374 954.456 712.500 L 954.500 731.500 951.047 737.477 C 939.133 758.097 917.126 780.386 894.743 794.500 C 889.503 797.804 888.332 799.884 889.980 802.962 C 891.610 806.008 894.433 805.464 901.825 800.678 C 920.268 788.738 939.590 770.364 951.009 753.907 C 954.217 749.283 957.882 744.375 959.152 743.000 C 960.422 741.625 962.190 738.475 963.080 736.000 C 963.969 733.525 966.718 726.550 969.187 720.500 C 980.762 692.142 984.970 664.665 985.029 617.050 C 985.061 591.515 986.222 571.097 988.082 563.380 C 988.728 560.696 990.877 555.449 992.855 551.721 C 996.819 544.251 996.555 541.771 991.737 541.192 C 989.677 540.944 988.584 541.744 986.155 545.275 "/></g>
<g fill="#000000FE" stroke="#000000FE">
<path d="M 1455.142 600.750 C 1452.757 605.243 1451.000 614.055 1451.000 621.522 C 1451.000 638.461 1456.618 652.013 1479.594 690.500 C 1505.274 733.516 1514.958 758.131 1517.954 788.000 C 1519.122 799.645 1519.112 801.675 1517.805 817.500 C 1516.262 836.191 1510.740 856.764 1501.612 877.839 C 1497.314 887.760 1497.162 889.661 1500.542 891.201 C 1504.009 892.781 1505.811 890.760 1510.440 880.102 C 1521.403 854.860 1527.996 825.114 1527.999 800.878 C 1528.001 787.051 1537.331 762.841 1549.810 744.283 C 1558.694 731.070 1564.699 724.034 1579.289 709.741 C 1591.633 697.649 1592.254 696.852 1591.178 694.491 C 1589.092 689.913 1585.801 691.189 1576.327 700.250 C 1553.628 721.959 1541.176 738.283 1530.409 760.449 C 1527.483 766.473 1524.871 770.746 1524.604 769.949 C 1524.337 769.152 1522.927 764.000 1521.470 758.500 C 1516.155 738.430 1506.060 717.059 1486.514 684.500 C 1460.027 640.379 1456.081 627.854 1462.048 606.827 C 1463.141 602.975 1463.143 601.878 1462.064 600.577 C 1460.316 598.471 1456.298 598.571 1455.142 600.750 "/></g>
<g fill="#000000FE" stroke="#000000FE">
<path d="M 1640.040 886.452 C 1637.530 889.476 1639.462 891.410 1650.545 896.968 C 1663.593 903.512 1668.870 907.076 1677.596 915.239 C 1686.972 924.009 1695.553 935.897 1701.685 948.612 C 1709.053 963.886 1712.037 975.926 1712.727 993.161 L 1713.273 1006.822 1707.387 1007.506 C 1704.149 1007.882 1694.075 1009.320 1685.000 1010.702 C 1664.816 1013.775 1649.045 1014.054 1636.736 1011.557 C 1627.094 1009.601 1625.000 1010.142 1625.000 1014.587 C 1625.000 1017.556 1626.719 1018.448 1636.228 1020.412 C 1648.423 1022.931 1665.523 1022.475 1689.127 1019.003 C 1713.298 1015.447 1727.255 1015.146 1740.500 1017.894 C 1763.556 1022.677 1781.078 1033.451 1788.081 1047.151 C 1792.852 1056.483 1793.313 1059.966 1793.422 1087.500 C 1793.508 1109.579 1793.790 1114.268 1795.290 1118.591 C 1798.158 1126.864 1802.014 1129.844 1805.429 1126.429 C 1807.493 1124.364 1807.421 1123.487 1804.750 1118.066 C 1802.596 1113.696 1802.498 1112.386 1802.446 1087.500 C 1802.400 1065.787 1802.098 1060.428 1800.610 1055.000 C 1794.964 1034.390 1781.291 1021.420 1756.432 1013.091 C 1746.964 1009.919 1732.317 1007.000 1725.869 1007.000 L 1722.000 1007.000 1721.996 997.250 C 1721.977 951.723 1695.741 909.119 1655.573 889.386 C 1646.241 884.801 1642.064 884.013 1640.040 886.452 "/></g>
<g fill="#B260E6FE" stroke="#B260E6FE">
<path d="M 1185.000 1249.176 C 1182.525 1249.548 1173.380 1249.885 1164.677 1249.926 L 1148.853 1250.000 1140.035 1258.132 C 1131.601 1265.910 1131.159 1266.531 1129.890 1272.382 C 1127.216 1284.701 1128.938 1309.278 1133.663 1326.250 C 1134.897 1330.683 1135.701 1332.000 1137.172 1332.000 C 1138.222 1332.000 1140.300 1332.876 1141.790 1333.946 C 1143.281 1335.016 1146.131 1336.181 1148.124 1336.534 L 1151.748 1337.175 1152.473 1331.338 C 1155.021 1310.833 1169.270 1277.227 1184.114 1256.711 C 1186.816 1252.977 1189.133 1249.602 1189.263 1249.211 C 1189.393 1248.820 1187.475 1248.804 1185.000 1249.176 "/></g>
<g fill="#000000FE" stroke="#000000FE">
<path d="M 932.804 999.533 C 928.022 1000.846 920.822 1003.566 916.804 1005.577 C 899.721 1014.129 888.889 1024.615 873.036 1047.947 C 867.447 1056.173 861.335 1064.255 859.454 1065.906 C 852.939 1071.626 838.740 1074.616 804.500 1077.478 C 784.150 1079.180 771.653 1081.023 762.937 1083.611 C 750.354 1087.346 740.524 1094.464 741.706 1098.985 C 742.663 1102.645 746.311 1102.492 751.780 1098.563 C 761.392 1091.657 772.086 1089.292 808.500 1086.017 C 833.686 1083.751 838.525 1083.044 853.732 1079.405 C 868.718 1075.818 882.899 1074.039 896.662 1074.018 C 911.829 1073.995 922.433 1075.956 931.639 1080.487 C 939.802 1084.503 942.484 1084.832 944.000 1082.000 C 945.653 1078.911 943.681 1076.373 937.012 1073.006 C 925.158 1067.022 917.464 1065.567 897.500 1065.532 C 887.600 1065.514 877.562 1065.847 875.193 1066.271 L 870.887 1067.042 879.878 1053.771 C 884.823 1046.472 891.036 1037.954 893.685 1034.843 C 905.903 1020.489 920.469 1011.526 938.053 1007.540 C 942.149 1006.612 946.175 1005.502 947.000 1005.074 C 948.945 1004.065 949.488 1000.293 947.954 998.445 C 946.327 996.484 943.056 996.719 932.804 999.533 "/></g>
<g fill="#B260E6FE" stroke="#B260E6FE">
<path d="M 1112.572 1278.598 C 1099.431 1286.482 1080.474 1294.852 1061.796 1301.018 L 1052.092 1304.222 1053.962 1309.142 C 1061.346 1328.575 1083.853 1345.458 1103.314 1346.162 C 1107.399 1346.310 1110.395 1345.529 1117.420 1342.483 C 1124.951 1339.219 1126.059 1338.452 1124.536 1337.558 C 1115.606 1332.319 1098.146 1315.680 1091.599 1306.171 C 1089.101 1302.543 1088.855 1301.613 1089.828 1299.479 C 1090.659 1297.654 1091.737 1297.000 1093.914 1297.000 C 1096.375 1297.000 1097.870 1298.221 1102.811 1304.268 C 1106.077 1308.266 1111.844 1314.417 1115.625 1317.938 L 1122.500 1324.339 1121.254 1317.920 C 1119.164 1307.148 1117.807 1291.941 1118.163 1283.271 L 1118.500 1275.041 1112.572 1278.598 "/></g>
<g fill="#000000FE" stroke="#000000FE">
<path d="M 857.750 1163.080 C 854.870 1164.758 855.697 1168.514 861.979 1182.282 C 869.219 1198.148 875.840 1209.300 882.372 1216.628 C 886.220 1220.946 887.071 1222.502 886.379 1223.959 C 884.601 1227.704 865.579 1249.074 858.648 1255.114 C 844.707 1267.261 830.647 1274.870 814.523 1278.994 C 806.368 1281.080 791.027 1283.000 782.518 1283.000 C 777.490 1283.000 776.843 1283.251 775.765 1285.617 C 774.712 1287.928 774.845 1288.456 776.897 1290.117 C 779.571 1292.283 781.556 1292.372 796.173 1290.986 C 832.256 1287.564 858.019 1272.698 885.732 1239.305 C 890.958 1233.009 894.685 1229.323 895.375 1229.771 C 895.994 1230.172 899.747 1232.650 903.717 1235.277 C 916.656 1243.842 933.276 1249.979 954.301 1253.957 C 968.656 1256.672 971.824 1256.637 972.914 1253.750 C 974.002 1250.870 972.584 1248.144 969.721 1247.608 C 945.086 1243.003 938.444 1241.455 930.234 1238.405 C 918.413 1234.015 911.750 1230.412 902.340 1223.321 C 888.455 1212.859 879.126 1199.415 867.886 1173.667 C 864.359 1165.590 861.898 1161.930 860.059 1162.030 C 859.751 1162.047 858.713 1162.519 857.750 1163.080 "/></g>
<g fill="#000000FE" stroke="#000000FE">
<path d="M 422.500 628.100 C 414.495 629.243 400.916 633.515 393.508 637.222 C 369.192 649.389 346.673 672.570 318.284 714.661 C 311.327 724.976 310.762 726.182 311.809 728.481 C 312.581 730.174 313.759 731.000 315.405 731.000 C 317.418 731.000 319.407 728.732 326.590 718.250 C 367.280 658.866 394.023 638.476 434.000 636.355 C 448.157 635.603 462.941 637.590 480.231 642.566 C 486.868 644.477 493.090 645.789 494.057 645.482 C 498.160 644.180 496.976 638.715 492.189 636.865 C 486.397 634.625 466.881 629.933 457.441 628.510 C 446.732 626.896 432.136 626.725 422.500 628.100 "/></g>
<g fill="#B260E6FE" stroke="#B260E6FE">
<path d="M 1024.000 1311.995 L 1006.500 1316.784 1017.014 1327.142 C 1022.796 1332.839 1030.113 1339.020 1033.272 1340.877 C 1044.973 1347.756 1060.553 1351.898 1074.979 1351.965 L 1082.458 1352.000 1074.558 1347.375 C 1061.235 1339.576 1049.096 1325.315 1044.233 1311.750 C 1043.297 1309.138 1042.299 1307.046 1042.015 1307.103 C 1041.732 1307.160 1033.625 1309.361 1024.000 1311.995 "/></g>
</svg>
